<svg width="36" height="70" viewBox="0 0 36 70" fill="none" xmlns="http://www.w3.org/2000/svg">
<path d="M4.07711 67.8571C1.82169 67.8571 0 65.5738 0 62.7469V25.2356C0 20.3428 3.16627 16.4286 7.02651 16.4286H28.9735C32.8771 16.4286 36 20.3971 36 25.2356V62.7469C36 65.5738 34.1783 67.8571 31.9229 67.8571H4.07711Z" fill="#DBDBDB"/>
<path d="M33.923 32.1429H32.7809V24.2808C32.7809 21.8005 30.962 19.835 28.7624 19.835H7.3165C5.07462 19.835 3.29804 21.8473 3.29804 24.2808V32.1429H2.15594V24.2808C2.15594 21.1454 4.48243 18.5715 7.3165 18.5715H28.7201C31.5542 18.5715 33.8807 21.1454 33.8807 24.2808V32.1429H33.923Z" fill="#B5B5B5"/>
<path d="M8.32895 47.8572H27.6711C29.2001 47.8572 30.4616 46.3217 30.4616 44.4605V24.8252C30.4616 22.9641 29.2001 21.4286 27.6711 21.4286H8.32895C6.79993 21.4286 5.53848 22.9641 5.53848 24.8252V44.4605C5.53848 46.3682 6.79993 47.8572 8.32895 47.8572Z" fill="#E7E7E7"/>
<path d="M20.1154 40.1542C20.1739 40.2146 20.255 40.2402 20.3361 40.2239L21.2597 40.0495H21.2642C21.2664 40.0495 21.2664 40.0495 21.2664 40.0495C21.2822 40.0565 21.3025 40.0542 21.316 40.0402L21.3182 40.0426L21.9647 39.9194L22.6675 39.7868L23.3726 39.6566L24.1948 39.4823C24.2759 39.4637 24.3615 39.4916 24.42 39.552L25.017 40.1635L25.267 40.4192L25.2242 40.4355L24.4651 40.7377L24.411 40.7586V40.761L23.76 41.0214L23.706 41.0423L23.1699 41.2585L23.1158 41.2818L22.5189 41.5212L22.4648 41.5421L22.1021 41.6863C21.9332 41.7537 21.8904 41.9792 22.0165 42.1094L23.1541 43.2742L23.7262 43.8624L23.724 43.8671C23.7893 43.9252 23.8569 43.9973 23.9064 44.074L24.0979 44.3553L24.143 44.425L24.2241 44.5459L24.2286 44.5529L24.4133 44.5366L24.7376 44.5041L25.0643 44.4762L25.3909 44.446L25.7153 44.4088C25.7896 44.4018 25.8639 44.4274 25.9202 44.4832L26.3077 44.883L26.2897 44.89L26.2717 44.8947L25.945 44.9946L25.9202 45.0016L25.6252 45.0923L25.6004 45.0993L25.4472 45.1481L25.3549 45.176L25.3301 45.183L25.0598 45.269L25.035 45.276L24.7692 45.3573L24.7782 45.369L24.8976 45.5457L24.9854 45.6968C24.9967 45.713 25.008 45.7293 25.0215 45.7433L25.3729 46.106C25.3954 46.1292 25.3954 46.1664 25.3909 46.1966C25.3886 46.199 25.3909 46.199 25.3886 46.199C25.3594 46.2059 25.3278 46.1966 25.3053 46.1734L24.9539 45.8107C24.9404 45.7967 24.9246 45.7828 24.9088 45.7735L24.7624 45.6828L24.5912 45.5596L24.58 45.5526L24.5011 45.827L24.4944 45.8525L24.4133 46.1339L24.4065 46.1594L24.3795 46.2547L24.3322 46.4128L24.3254 46.4384L24.2376 46.743L24.2308 46.7686L24.134 47.1057L24.1295 47.1243L24.1227 47.1429L23.7352 46.743C23.6834 46.6872 23.6564 46.6081 23.6632 46.5314L23.6992 46.1966L23.7285 45.8618L23.7555 45.5247L23.7848 45.1876L23.8006 44.997L23.7938 44.9923L23.6767 44.9086L23.6091 44.8621L23.3343 44.6645C23.26 44.6134 23.1901 44.5459 23.1338 44.4762L23.1293 44.4785L22.5594 43.888L21.4286 42.7162C21.3025 42.586 21.084 42.6302 21.0186 42.8069L20.879 43.1812L20.8565 43.237L20.6244 43.8531L20.6019 43.9089L20.3947 44.4622L20.3744 44.518L20.1244 45.1876L20.1221 45.1853L20.1018 45.2434L19.809 46.0269L19.7932 46.0711L19.5455 45.813L18.953 45.1992C18.8945 45.1388 18.8674 45.0504 18.8854 44.9667L19.0521 44.1158L19.1783 43.3881L19.3067 42.6628L19.4261 41.9955L19.4238 41.9932C19.4373 41.9792 19.4396 41.9606 19.4328 41.942C19.4328 41.942 19.4328 41.942 19.4328 41.9397V41.9351L19.6018 40.9818C19.6175 40.8981 19.5905 40.8144 19.5342 40.754L18.748 39.938C18.2119 39.3753 17.9078 38.8011 18.025 38.5988C18.025 38.5965 18.025 38.5965 18.0272 38.5965C18.2254 38.4779 18.7818 38.7894 19.3247 39.3428L20.1154 40.1542Z" fill="#DBDBDB"/>
<path d="M8.83482 36.4285C8.16612 36.4285 7.61542 35.9497 7.61542 35.3682V25.3118C7.61542 24.7303 8.16612 24.2857 8.79549 24.2857H27.2046C27.8733 24.2857 28.3846 24.7645 28.3846 25.3118V35.3682C28.3846 35.9497 27.834 36.4285 27.1652 36.4285H8.83482Z" fill="#DBDBDB"/>
<path d="M28.3847 26.4286H7.69354V27.9043H28.3847V26.4286Z" fill="#B5B5B5"/>
<path d="M32.5384 53.5714H3.46143V55H32.5384V53.5714Z" fill="#B5B5B5"/>
<path d="M9.69231 32.8571C10.0817 32.8571 10.3846 32.4798 10.3846 31.9946V28.0054C10.3846 27.5202 10.0817 27.1429 9.69231 27.1429C9.30288 27.1429 9 27.5202 9 28.0054V31.9946C9 32.4798 9.30288 32.8571 9.69231 32.8571Z" fill="#F5F5F5"/>
<path d="M2.76915 36.4285C3.15857 36.4285 3.46146 36.0512 3.46146 35.566V31.5768C3.46146 31.0916 3.15857 30.7143 2.76915 30.7143C2.37973 30.7143 2.07684 31.0916 2.07684 31.5768V35.566C2.07684 36.0512 2.37973 36.4285 2.76915 36.4285Z" fill="#F5F5F5"/>
<path d="M6.23079 60C6.62021 60 6.9231 59.6227 6.9231 59.1375V55.1483C6.9231 54.6631 6.62021 54.2857 6.23079 54.2857C5.84137 54.2857 5.53848 54.6631 5.53848 55.1483V59.1375C5.53848 59.6227 5.84137 60 6.23079 60Z" fill="#F5F5F5"/>
<path d="M30.4616 67.8571H25.6154C25.6154 69.0406 26.5748 70 27.7583 70H28.3187C29.5022 70 30.4616 69.0406 30.4616 67.8571Z" fill="#B5B5B5"/>
<path d="M10.3846 67.8571H5.53848C5.53848 69.0406 6.49787 70 7.68134 70H8.24178C9.42525 70 10.3846 69.0406 10.3846 67.8571Z" fill="#B5B5B5"/>
<path d="M24.2308 2.85718H22.1539V14.2857H24.2308V2.85718Z" fill="#B5B5B5"/>
<path d="M13.8461 2.85718H11.7692V14.2857H13.8461V2.85718Z" fill="#B5B5B5"/>
<path d="M8.30762 16.4286H27.6922C27.6922 15.2857 27.1468 14.2857 26.4335 14.2857H9.56636C8.89503 14.3571 8.30762 15.2857 8.30762 16.4286Z" fill="#B5B5B5"/>
<path d="M11.7692 1.42859H24.2308V3.57145C20.0377 2.63068 15.8839 2.63068 11.7692 3.51918V1.42859Z" fill="#B5B5B5"/>
<path d="M12.7662 0.548173C16.3266 -0.182724 19.8159 -0.182724 23.2695 0.548173C23.8391 0.681063 24.2308 1.1794 24.2308 1.71096V2.14286C19.9939 1.37874 15.8282 1.37874 11.7693 2.14286V1.71096C11.7693 1.1794 12.1965 0.681063 12.7662 0.548173Z" fill="#DBDBDB"/>
</svg>
