<svg width="75" height="100" viewBox="0 0 75 100" fill="none" xmlns="http://www.w3.org/2000/svg">
<path d="M41.2427 75.3164C42.4584 75.3164 43.5005 76.3785 43.5005 77.6177V84.6987C43.5005 85.9379 42.4584 87 41.2427 87C40.0269 87 38.9848 85.9379 38.9848 84.6987V77.6177C38.9848 76.29 40.0269 75.3164 41.2427 75.3164Z" fill="#0A0A7A"/>
<path d="M9.37201 75.3164C10.5878 75.3164 11.6299 76.3785 11.6299 77.6177V84.6987C11.6299 85.9379 10.5878 87 9.37201 87C8.15623 87 7.11414 85.9379 7.11414 84.6987V77.6177C7.11414 76.29 8.06939 75.3164 9.37201 75.3164Z" fill="#0A0A7A"/>
<path d="M39.8207 77.4327H9.67139C8.56682 77.4327 7.67139 78.3281 7.67139 79.4327V79.6848C7.67139 80.7894 8.56682 81.6848 9.67139 81.6848H39.8207C40.9253 81.6848 41.8207 80.7894 41.8207 79.6848V79.4327C41.8207 78.3281 40.9253 77.4327 39.8207 77.4327Z" fill="#0A0A7A"/>
<path d="M18.7043 4.42561H15.8385V24.1639H18.7043V4.42561Z" fill="#090959"/>
<path d="M34.3355 4.42561H31.4697V24.1639H34.3355V4.42561Z" fill="#090959"/>
<path d="M36.2459 0H13.7541C12.5383 0 11.4962 1.06215 11.4962 2.30133C11.4962 3.5405 12.5383 4.60265 13.7541 4.60265H36.2459C37.4617 4.60265 38.5038 3.5405 38.5038 2.30133C38.5038 1.06215 37.4617 0 36.2459 0Z" fill="#090959"/>
<path d="M40.4 79.5587H9.6C4.32 79.5587 0 75.0179 0 69.4681V18.426C0 12.8762 4.32 8.33536 9.6 8.33536H40.4C45.68 8.33536 50 12.8762 50 18.426V69.4681C50 75.0179 45.68 79.5587 40.4 79.5587Z" fill="#3030D1"/>
<path d="M11.7816 10.4614H38.2181V18.646C38.2181 25.9463 32.3 31.8643 24.9998 31.8643C17.6996 31.8643 11.7816 25.9463 11.7816 18.646V10.4614Z" fill="#090959" fill-opacity="0.5"/>
<rect x="21.4499" y="28.7746" width="7.09974" height="4.94963" rx="1" fill="#4141E5"/>
<rect x="22.1647" y="29.4434" width="5.68891" height="2.10135" rx="1" fill="#090959"/>
<path d="M36.5934 72.1175C33.7094 72.1175 31.3662 72.2097 31.3662 72.3233V76.1637C31.3662 76.2773 33.7094 76.3696 36.5934 76.3696C39.4773 76.3696 41.8205 76.2773 41.8205 76.1637V72.3162C41.8205 72.2097 39.4773 72.1175 36.5934 72.1175Z" fill="#090975"/>
<rect x="9.41211" y="55.1089" width="32.4084" height="2.95572" rx="1.47786" fill="#040483" fill-opacity="0.5"/>
<rect x="9.41211" y="49.3202" width="32.4084" height="2.95572" rx="1.47786" fill="#040483" fill-opacity="0.5"/>
<rect x="9.41211" y="60.5408" width="32.4084" height="2.95573" rx="1.47786" fill="#040483" fill-opacity="0.5"/>
<rect x="9.41211" y="66.3291" width="32.4084" height="2.95571" rx="1.47786" fill="#040483" fill-opacity="0.5"/>
<path fill-rule="evenodd" clip-rule="evenodd" d="M51.9999 48.2807C55.3427 48.2807 58.0525 45.6494 58.0525 42.4035C58.0525 39.1576 55.3427 36.5263 51.9999 36.5263C48.6571 36.5263 45.9473 39.1576 45.9473 42.4035C45.9473 45.6494 48.6571 48.2807 51.9999 48.2807ZM51.9999 51.807C57.3483 51.807 61.6841 47.5969 61.6841 42.4035C61.6841 37.2101 57.3483 33 51.9999 33C46.6514 33 42.3157 37.2101 42.3157 42.4035C42.3157 47.5969 46.6514 51.807 51.9999 51.807Z" fill="#0B0B77"/>
<path d="M29 63.5614C29 51.227 39.2975 41.228 52 41.228C64.7025 41.228 75 51.227 75 63.5614V95.2982C75 97.8949 72.8321 100 70.1579 100H33.8421C31.1679 100 29 97.8949 29 95.2982V63.5614Z" fill="#4141E5"/>
<path fill-rule="evenodd" clip-rule="evenodd" d="M44.0379 50.0227C44.8028 49.5215 45.8573 49.1429 46.9959 48.8698C50.1088 48.1233 53.3736 48.1143 56.5083 48.7314C57.7829 48.9823 58.9661 49.3544 59.824 49.8764C60.6638 50.3875 61.0642 50.9544 61.1185 51.6159C61.2063 52.686 61.0532 53.3351 60.8086 53.7566C60.5751 54.1587 60.1738 54.4989 59.4391 54.7864C55.1467 56.4664 48.8162 56.4588 44.6736 54.6602C43.9476 54.345 43.4982 53.9782 43.2311 53.5566C42.9673 53.1403 42.8012 52.5441 42.8821 51.6223C42.9332 51.0393 43.2864 50.5151 44.0379 50.0227ZM51.4318 45.9316C51.4318 45.9316 51.4321 45.9316 51.4359 46.1025C51.4323 45.9316 51.4336 45.9315 51.4336 45.9315L51.4361 45.9315L51.444 45.9314L51.471 45.931C51.4939 45.9307 51.5265 45.9303 51.5682 45.9301C51.6516 45.9296 51.7715 45.9296 51.9227 45.9313C52.2248 45.9348 52.6535 45.945 53.1679 45.9723C54.1919 46.0266 55.5776 46.1495 56.9893 46.4274C58.3843 46.702 59.8943 47.1448 61.1097 47.8844C62.3433 48.6351 63.3963 49.777 63.5319 51.4292C63.6411 52.7607 63.4851 53.9334 62.9176 54.911C62.4662 55.6886 61.8108 56.2466 61.0314 56.6552C62.471 56.939 63.8966 57.3756 65.0711 58.071C66.6404 59.0002 67.8179 60.437 67.8824 62.5267C67.9494 64.6999 66.6669 66.2277 65.0278 67.2375C63.9183 67.9211 62.582 68.4143 61.2129 68.774C63.3162 69.2715 65.4554 69.9708 67.1009 70.9679C68.8764 72.0437 70.3523 73.6548 70.1378 75.9172C69.7712 79.7821 66.2961 81.9787 62.6803 83.1764C58.9834 84.4009 54.6121 84.7775 51.4316 84.7122C48.4622 84.6513 44.3674 84.1667 40.898 82.9186C37.5113 81.7004 34.2296 79.5616 33.864 75.9236C33.6473 73.7679 35.0463 72.2059 36.7107 71.1501C38.3849 70.0881 40.6045 69.342 42.7346 68.8126C42.8028 68.7956 42.8711 68.7788 42.9393 68.7623C41.4576 68.3756 39.9772 67.8314 38.7797 67.0535C37.2518 66.0611 36.0517 64.5862 36.1188 62.5248C36.1823 60.574 37.2178 59.1916 38.6402 58.2681C39.972 57.4033 41.6633 56.9195 43.2986 56.626C42.4388 56.1955 41.6888 55.609 41.1689 54.7884C40.5691 53.8415 40.3567 52.7115 40.4698 51.4227C40.6041 49.8911 41.5664 48.8061 42.6837 48.074C43.7875 47.3507 45.1551 46.8898 46.4154 46.5875C47.6908 46.2817 48.941 46.1189 49.8642 46.032C50.3281 45.9884 50.7148 45.9634 50.9876 45.9493C51.1241 45.9422 51.2325 45.9378 51.3081 45.9352C51.3459 45.9339 51.3755 45.933 51.3964 45.9324L51.4212 45.9318L51.4285 45.9316L51.4318 45.9316ZM65.8192 72.9623C64.3811 72.0909 62.3335 71.4307 60.1544 70.9468C54.471 69.6848 48.9691 69.6897 43.3349 71.09C41.2919 71.5978 39.3764 72.2672 38.0348 73.1183C36.6834 73.9755 36.186 74.824 36.2736 75.6953C36.4942 77.8908 38.5209 79.5566 41.739 80.7142C44.8742 81.8419 48.6804 82.3044 51.4827 82.3619C54.4807 82.4234 58.5506 82.0603 61.8986 80.9514C65.3277 79.8156 67.5009 78.0851 67.7269 75.7017C67.8184 74.7367 67.263 73.8371 65.8192 72.9623ZM52.3966 68.0952C60.0619 68.0952 66.2759 65.774 66.2759 62.9107C66.2759 60.0474 60.0619 57.7262 52.3966 57.7262C44.7313 57.7262 38.5173 60.0474 38.5173 62.9107C38.5173 65.774 44.7313 68.0952 52.3966 68.0952Z" fill="#B8B8F4"/>
<path d="M29 83.5438H75V95.2982C75 97.8949 72.8321 99.9999 70.1579 99.9999H33.8421C31.1679 99.9999 29 97.8949 29 95.2982V83.5438Z" fill="#0B0B77"/>
<path d="M36.2632 90.5965H67.7369V92.9474C67.7369 94.2457 66.6529 95.2983 65.3158 95.2983H38.6842C37.3471 95.2983 36.2632 94.2457 36.2632 92.9474V90.5965Z" fill="#2C2C9E"/>
<path d="M36.2632 80.0176H67.7369V90.5965C67.7369 91.8949 66.6529 92.9474 65.3158 92.9474H38.6842C37.3471 92.9474 36.2632 91.8949 36.2632 90.5965V80.0176Z" fill="#4141E5"/>
<path d="M36.2632 77.6666C36.2632 75.7191 37.8891 74.1403 39.8948 74.1403H64.1053C66.111 74.1403 67.7369 75.7191 67.7369 77.6666V78.8421H36.2632V77.6666Z" fill="#0B0B77"/>
<path d="M36.2632 78.8421H67.7369V81.193H36.2632V78.8421Z" fill="#2C2C9E"/>
<path d="M52.0001 82.3684L56.8422 87.0702L52.0001 91.7719L47.158 87.0702L52.0001 82.3684Z" fill="#0B0B77"/>
<path d="M50.5088 85.19C50.5088 84.9303 50.7255 84.7198 50.9929 84.7198C51.2603 84.7198 51.4771 84.9303 51.4771 85.19V88.9509C51.4771 89.2105 51.2603 89.421 50.9929 89.421C50.7255 89.421 50.5088 89.2105 50.5088 88.9509V85.19Z" fill="#B8B8F4"/>
<path d="M52.4457 85.1895C52.4457 84.9298 52.6624 84.7194 52.9298 84.7194C53.1972 84.7194 53.414 84.9298 53.414 85.1895V88.9504C53.414 89.21 53.1972 89.4205 52.9298 89.4205C52.6624 89.4205 52.4457 89.21 52.4457 88.9504V85.1895Z" fill="#B8B8F4"/>
<path d="M35.0526 62.3859C35.0526 61.7367 35.5946 61.2105 36.2631 61.2105H38.6842C39.3527 61.2105 39.8947 61.7367 39.8947 62.3859C39.8947 63.0351 39.3527 63.5613 38.6842 63.5613H36.2631C35.5946 63.5613 35.0526 63.0351 35.0526 62.3859Z" fill="#0B0B77"/>
<path d="M39.8949 51.807C39.8949 51.1578 40.4369 50.6315 41.1054 50.6315H42.316C42.9845 50.6315 43.5265 51.1578 43.5265 51.807C43.5265 52.4561 42.9845 52.9824 42.316 52.9824H41.1054C40.4369 52.9824 39.8949 52.4561 39.8949 51.807Z" fill="#0B0B77"/>
<path d="M32.6317 75.3157C32.6317 74.6666 33.1737 74.1403 33.8422 74.1403H36.2633C36.9318 74.1403 37.4738 74.6666 37.4738 75.3157C37.4738 75.9649 36.9318 76.4912 36.2633 76.4912H33.8422C33.1737 76.4912 32.6317 75.9649 32.6317 75.3157Z" fill="#0B0B77"/>
<path d="M64.1051 62.3859C64.1051 61.7367 64.6471 61.2105 65.3156 61.2105H67.7367C68.4052 61.2105 68.9472 61.7367 68.9472 62.3859C68.9472 63.0351 68.4052 63.5613 67.7367 63.5613H65.3156C64.6471 63.5613 64.1051 63.0351 64.1051 62.3859Z" fill="#0B0B77"/>
<path d="M66.5262 75.3157C66.5262 74.6666 67.0682 74.1403 67.7368 74.1403H70.1578C70.8264 74.1403 71.3683 74.6666 71.3683 75.3157C71.3683 75.9649 70.8264 76.4912 70.1578 76.4912H67.7368C67.0682 76.4912 66.5262 75.9649 66.5262 75.3157Z" fill="#0B0B77"/>
<path d="M60.4738 51.807C60.4738 51.1578 61.0157 50.6315 61.6843 50.6315H62.8948C63.5634 50.6315 64.1053 51.1578 64.1053 51.807C64.1053 52.4561 63.5634 52.9824 62.8948 52.9824H61.6843C61.0157 52.9824 60.4738 52.4561 60.4738 51.807Z" fill="#0B0B77"/>
<path d="M39.8949 78.8421H42.3159V83.5439H39.8949V78.8421Z" fill="#B8B8F4"/>
<path fill-rule="evenodd" clip-rule="evenodd" d="M41.1054 85.8948C41.7739 85.8948 42.3159 85.3685 42.3159 84.7193C42.3159 84.0702 41.7739 83.5439 41.1054 83.5439C40.4368 83.5439 39.8949 84.0702 39.8949 84.7193C39.8949 85.3685 40.4368 85.8948 41.1054 85.8948ZM41.1054 87.0702C42.4425 87.0702 43.5264 86.0177 43.5264 84.7193C43.5264 83.421 42.4425 82.3685 41.1054 82.3685C39.7683 82.3685 38.6843 83.421 38.6843 84.7193C38.6843 86.0177 39.7683 87.0702 41.1054 87.0702Z" fill="#B8B8F4"/>
<path fill-rule="evenodd" clip-rule="evenodd" d="M31.4211 83.5438V95.2982C31.4211 96.5965 32.505 97.6491 33.8421 97.6491H70.1579C71.495 97.6491 72.5789 96.5965 72.5789 95.2982V83.5438H75V95.2982C75 97.8949 72.8321 99.9999 70.1579 99.9999H33.8421C31.1679 99.9999 29 97.8949 29 95.2982V83.5438H31.4211Z" fill="#2C2C9E"/>
</svg>
