<svg width="62" height="98" viewBox="0 0 62 98" fill="none" xmlns="http://www.w3.org/2000/svg">
<path d="M7.02169 94.8961C3.13735 94.8961 0 91.7165 0 87.7799V35.5435C0 28.7301 5.45301 23.2793 12.1012 23.2793H49.8988C56.6217 23.2793 62 28.8058 62 35.5435V87.7799C62 91.7165 58.8626 94.8961 54.9783 94.8961H7.02169Z" fill="#DBDBDB"/>
<path d="M59.087 48.2619H57.0701V35.5434C57.0701 31.5311 53.8581 28.3515 49.9738 28.3515H12.1015C8.14242 28.3515 5.00507 31.6068 5.00507 35.5434V48.2619H2.9882V35.5434C2.9882 30.4712 7.09664 26.3074 12.1015 26.3074H49.8991C54.9039 26.3074 59.0123 30.4712 59.0123 35.5434V48.2619H59.087Z" fill="#B5B5B5"/>
<path d="M12.1014 73.7744H49.899C52.8869 73.7744 55.352 71.2761 55.352 68.248V36.3005C55.352 33.2723 52.8869 30.774 49.899 30.774H12.1014C9.11341 30.774 6.64835 33.2723 6.64835 36.3005V68.248C6.64835 71.3519 9.11341 73.7744 12.1014 73.7744Z" fill="#E7E7E7"/>
<path d="M13.5951 63.2514C12.3252 63.2514 11.2794 62.1916 11.2794 60.9046V38.6473C11.2794 37.3604 12.3252 36.3762 13.5204 36.3762H48.4794C49.7493 36.3762 50.7204 37.4361 50.7204 38.6473V60.9046C50.7204 62.1916 49.6746 63.2514 48.4047 63.2514H13.5951Z" fill="#DBDBDB"/>
<path d="M48.7781 40.5399H13.2961V42.584H48.7781V40.5399Z" fill="#B5B5B5"/>
<path d="M57.7429 76.197H2.914V78.241H57.7429V76.197Z" fill="#B5B5B5"/>
<path d="M3.95875 55.2267C4.63104 55.2267 5.15393 54.6968 5.15393 54.0154V48.4132C5.15393 47.7319 4.63104 47.202 3.95875 47.202C3.28646 47.202 2.76357 47.7319 2.76357 48.4132V54.0154C2.76357 54.6211 3.28646 55.2267 3.95875 55.2267Z" fill="#F5F5F5"/>
<path d="M14.4913 49.0947C15.1636 49.0947 15.6865 48.5647 15.6865 47.8834V42.2812C15.6865 41.5999 15.1636 41.0699 14.4913 41.0699C13.819 41.0699 13.2961 41.5999 13.2961 42.2812V47.8834C13.2961 48.5647 13.819 49.0947 14.4913 49.0947Z" fill="#F5F5F5"/>
<path d="M4.18233 85.2059C4.85462 85.2059 5.37751 84.6759 5.37751 83.9946V78.3924C5.37751 77.7111 4.85462 77.1812 4.18233 77.1812C3.51004 77.1812 2.98715 77.7111 2.98715 78.3924V83.9946C2.91245 84.6759 3.51004 85.2059 4.18233 85.2059Z" fill="#F5F5F5"/>
<path d="M54.085 94.6667H47.4893V95C47.4893 96.6568 48.8324 98 50.4893 98H51.085C52.7419 98 54.085 96.6568 54.085 95V94.6667Z" fill="#B5B5B5"/>
<path d="M13.8508 94.6667H7.2551V95C7.2551 96.6568 8.59824 98 10.2551 98H10.8508C12.5077 98 13.8508 96.6568 13.8508 95V94.6667Z" fill="#B5B5B5"/>
<path d="M44.1914 3.33331H40.8935V23.3333H44.1914V3.33331Z" fill="#B5B5B5"/>
<path d="M21.1064 3.33331H17.8085V23.3333H21.1064V3.33331Z" fill="#B5B5B5"/>
<path d="M13.8512 23.3333H48.1491C48.1491 22.2666 47.184 21.3333 45.9219 21.3333H16.0783C14.8905 21.4 13.8512 22.2666 13.8512 23.3333Z" fill="#B5B5B5"/>
<path d="M18.4683 3.33331H43.5321V6.66665C35.0987 5.20323 26.7441 5.20323 18.4683 6.58534V3.33331Z" fill="#B5B5B5"/>
<path d="M19.9192 1.1938C27.4571 -0.397933 34.8444 -0.397933 42.1562 1.1938C43.3623 1.4832 44.1915 2.56848 44.1915 3.7261V4.66667C35.2213 3.00258 26.4018 3.00258 17.8085 4.66667V3.7261C17.8085 2.56848 18.7131 1.4832 19.9192 1.1938Z" fill="#DBDBDB"/>
</svg>
