<?xml version="1.0" encoding="utf-8"?>
<!-- Generator: Adobe Illustrator 21.1.0, SVG Export Plug-In . SVG Version: 6.00 Build 0)  -->
<svg version="1.1" id="Layer_1" xmlns="http://www.w3.org/2000/svg" xmlns:xlink="http://www.w3.org/1999/xlink" x="0px" y="0px"
	 viewBox="0 0 30 34" style="enable-background:new 0 0 30 34;" xml:space="preserve">
<style type="text/css">
	.st0{display:none;fill:#0B0B77;}
	.st1{display:none;fill:#1111B7;}
	.st2{display:none;fill:#B8B8F4;}
	.st3{display:none;fill:#7474F9;}
	.st4{fill:#0B0B77;}
	.st5{fill:#1111B7;}
	.st6{fill:#0B0B89;}
	.st7{fill:#B8B8F4;}
	.st8{fill:#8080DD;}
</style>
<path class="st0" d="M0,31.1c7.5,3.8,24.6,3.8,30,0c0-8.3-6.7-13.2-15-13.2C6.8,17.9,0,22.8,0,31.1z"/>
<path class="st1" d="M6.7,10.6c4.9,0.8,9.6,1,15.9,0.1c1.9-4.8-0.8-9.3-4.1-9.1C18,0.8,18.4,1.1,17.6,0C8.8-0.3,5.4,6.1,6.7,10.6z"
	/>
<path class="st2" d="M14.9,23.8c2.2,0,3.9-1.7,3.9-3.9v-3.5c0-2.1-1.7-3.9-3.9-3.9c-2.1,0-3.9,1.7-3.9,3.9v3.5
	C11,22.1,12.8,23.8,14.9,23.8z"/>
<path class="st3" d="M14.7,20.3h0.5c2.1,0,3.9-1.7,3.9-3.9c0-2.1-1.7-3.9-3.9-3.9h-0.5c-2.1,0-3.9,1.7-3.9,3.9
	C10.8,18.5,12.6,20.3,14.7,20.3z"/>
<path class="st2" d="M7,13.5h15.3c0.8,0,1.5-0.7,1.5-1.5c0-0.8-0.7-1.5-1.5-1.5H7c-0.8,0-1.5,0.7-1.5,1.5C5.5,12.8,6.2,13.5,7,13.5z
	"/>
<path class="st2" d="M22.7,10c0,4.4-3.5,8.7-7.9,8.7s-8-4.3-8-8.7c0-4.4,3.5-8,7.9-8C19.1,2,22.7,5.6,22.7,10z"/>
<path class="st1" d="M6.8,10.5l0.8,1.1V8.6l10.6-4.5l3.9,4.8L22,11.3l0.6-0.7c0,0,2-9-7.7-9C6,1.6,6.8,10.5,6.8,10.5z"/>
<g>
	<path class="st4" d="M0.1,31.1C7.6,35,24.6,35,30,31.1C30,22.9,23.3,18,15.1,18C6.8,18,0.1,22.9,0.1,31.1"/>
	<path class="st5" d="M4.7,10.2v6.4c5.4,3.2,15.2,1.8,20,0.7c0-2.4,0.1-3.3,0.1-7.2c0-5.5-4.5-10-10-10C9.2,0.2,4.7,4.7,4.7,10.2"/>
	<path class="st6" d="M7,11.5c0,0,0.1,5.1,0.1,6.1c8.7,2.5,15.8,0.1,15.8,0.1l-0.1-7.7C22.7,10.1,7,11.5,7,11.5z"/>
	<path class="st7" d="M15,23.9c2.1,0,3.9-1.7,3.9-3.9v-3.5c0-2.1-1.7-3.9-3.9-3.9s-3.9,1.7-3.9,3.9V20C11.1,22.1,12.8,23.9,15,23.9"
		/>
	<path class="st8" d="M14.8,20.4h0.5c2.1,0,3.9-1.7,3.9-3.9s-1.7-3.9-3.9-3.9h-0.5c-2.1,0-3.9,1.7-3.9,3.9S12.6,20.4,14.8,20.4"/>
	<path class="st7" d="M22.7,10.1c0,4.4-3.5,8.6-7.9,8.6s-7.9-4.3-7.9-8.6s3.5-7.9,7.9-7.9S22.7,5.7,22.7,10.1"/>
	<path class="st5" d="M6.4,11.8l11.8-5.7l5.3,4.7c0,0,0.2-9.4-8.1-9.5C5.5,1.2,6.4,11.8,6.4,11.8"/>
	<path class="st5" d="M-0.3,0"/>
</g>
<path class="st4" d="M17.3,12.2c0.5,0,1-0.4,1-1c0-0.5-0.4-1-1-1c-0.5,0-1,0.4-1,1C16.4,11.8,16.8,12.2,17.3,12.2z"/>
<path class="st4" d="M11.9,12.2c0.5,0,1-0.4,1-1c0-0.5-0.4-1-1-1c-0.5,0-1,0.4-1,1C10.9,11.8,11.4,12.2,11.9,12.2z"/>
</svg>
