<svg width="50" height="86" viewBox="0 0 50 86" fill="none" xmlns="http://www.w3.org/2000/svg">
<path d="M0 79.2418V22.4627C0 20.3557 1.7966 18.6957 4.0769 18.6957H45.9231C48.2034 18.6957 50 20.3557 50 22.4627V79.2418C50 81.3487 48.2034 83.0087 45.9231 83.0087H4.0769C1.7966 83.0087 0 81.3487 0 79.2418Z" fill="#DBDBDB"/>
<path d="M41.0591 23.1826H8.94118C5.62748 23.1826 2.94118 25.8689 2.94118 29.1826V74.0174C2.94118 77.3311 5.62747 80.0174 8.94118 80.0174H41.0591C44.3728 80.0174 47.0591 77.3311 47.0591 74.0174V29.1826C47.0591 25.8689 44.3728 23.1826 41.0591 23.1826Z" fill="#E7E7E7"/>
<path d="M7.51791 76.0986C7.10331 76.0986 6.75781 75.7434 6.75781 75.3171V60.4873C6.75781 59.2795 7.72521 58.356 8.83081 58.356H41.1696C42.3443 58.356 43.2426 59.3506 43.2426 60.4873V75.3171C43.2426 75.7434 42.8971 76.0986 42.4825 76.0986H7.51791Z" fill="#DBDBDB"/>
<path d="M7.51791 53.5959C7.10331 53.5959 6.75781 53.2407 6.75781 52.8144V30.5063C6.75781 29.2986 7.72521 28.375 8.83081 28.375H41.1696C42.3443 28.375 43.2426 29.3696 43.2426 30.5063V52.8144C43.2426 53.2407 42.8971 53.5959 42.4825 53.5959H7.51791Z" fill="#DBDBDB"/>
<path d="M30.9217 39.4991L27.674 41.2042C26.8448 41.6304 25.9465 41.0621 25.8774 40.1385L25.7392 37.3678C25.6701 36.4442 26.5684 35.8048 27.3976 36.0889L30.8526 37.3678C30.6453 37.9361 30.6453 38.6466 30.8526 39.286C30.8526 39.357 30.9217 39.4281 30.9217 39.4991ZM31.4054 36.4442C31.6818 36.16 31.9582 36.0179 32.3037 35.8758C32.6492 35.7337 32.9947 35.6627 33.3402 35.6627L33.4784 31.9684C33.4784 31.0448 32.6492 30.4054 31.82 30.7606L29.3324 31.7552C28.5032 32.1104 28.2959 33.1761 28.9178 33.8155L31.4054 36.4442ZM39.3519 39.357L35.7587 38.7887C35.6205 39.4991 35.2059 40.1385 34.584 40.5648L36.5879 43.6907C37.0716 44.4722 38.1772 44.4012 38.6609 43.6907L40.112 41.3463C40.6648 40.5648 40.1811 39.4991 39.3519 39.357ZM39.8356 34.597L38.1772 32.4657C37.6244 31.7552 36.5188 31.8973 36.1042 32.6788L34.4458 35.9469C34.9986 36.231 35.4132 36.7284 35.6896 37.3678C35.7587 37.4388 35.7587 37.5809 35.7587 37.6519L39.2137 36.6573C40.0429 36.3731 40.3884 35.3075 39.8356 34.597ZM31.6127 40.3516L29.3324 43.3355C28.7796 44.046 29.1251 45.1116 30.0234 45.3248L32.5801 46.0352C33.4093 46.2484 34.2385 45.5379 34.1003 44.6143L33.6166 40.92C32.8565 41.0621 32.1655 40.8489 31.6127 40.3516Z" fill="#E7E7E7"/>
<path d="M41.4456 58.356H8.62315V60.2742H41.4456V58.356Z" fill="#B5B5B5"/>
<path d="M9.72875 66.8102C10.3506 66.8102 10.8343 66.3129 10.8343 65.6735V60.4162C10.8343 59.7768 10.3506 59.2795 9.72875 59.2795C9.10685 59.2795 8.62315 59.7768 8.62315 60.4162V65.6735C8.62315 66.3129 9.10685 66.8102 9.72875 66.8102Z" fill="#F5F5F5"/>
<path d="M41.4456 28.375H8.62315V30.2932H41.4456V28.375Z" fill="#B5B5B5"/>
<path d="M9.72875 36.9004C10.3506 36.9004 10.8343 36.4031 10.8343 35.7637V30.5063C10.8343 29.8669 10.3506 29.3696 9.72875 29.3696C9.10685 29.3696 8.62315 29.8669 8.62315 30.5063V35.7637C8.62315 36.332 9.10685 36.9004 9.72875 36.9004Z" fill="#F5F5F5"/>
<path d="M41.866 86H42.7621C44.3476 86 45.5884 84.6138 45.5884 83.0087H38.9707C39.0397 84.6868 40.3494 86 41.866 86Z" fill="#B5B5B5"/>
<path d="M7.30706 86H8.20321C9.7887 86 11.0295 84.6138 11.0295 83.0087H4.41183C4.41183 84.6868 5.72158 86 7.30706 86Z" fill="#B5B5B5"/>
<path fill-rule="evenodd" clip-rule="evenodd" d="M36.0246 3.31989H14.6464V3.5296H13.2352V18.6958H15.9915V13.2443H34.0081V18.6958H36.7645V3.5296H36.0246V3.31989ZM34.0081 5.86537C27.9548 5.00272 21.9493 5.02942 15.9915 5.9036V10.3788H34.0081V5.86537Z" fill="#B5B5B5"/>
<path d="M15.1176 1.15319C21.8404 -0.384397 28.4286 -0.384397 34.9497 1.15319C36.0253 1.43275 36.7648 2.48111 36.7648 3.59935V4.50792C28.7648 2.90045 20.8992 2.90045 13.2353 4.50792V3.59935C13.2353 2.48111 14.042 1.43275 15.1176 1.15319Z" fill="#DBDBDB"/>
<path d="M19.1585 44.2832C19.2207 44.3465 19.3069 44.3732 19.393 44.3562L20.3739 44.1736H20.3787C20.3811 44.1736 20.3811 44.1736 20.3811 44.1736C20.3978 44.1809 20.4194 44.1785 20.4337 44.1639L20.4361 44.1663L21.1227 44.0373L21.8692 43.8986L22.618 43.7623L23.4913 43.5797C23.5774 43.5602 23.6683 43.5895 23.7305 43.6527L24.3645 44.2929L24.6301 44.5607L24.5846 44.5777L23.7784 44.8941L23.7209 44.916V44.9185L23.0295 45.1911L22.9721 45.213L22.4027 45.4394L22.3453 45.4637L21.7113 45.7144L21.6539 45.7363L21.2687 45.8872C21.0892 45.9578 21.0438 46.1939 21.1778 46.3302L22.386 47.5497L22.9936 48.1655L22.9912 48.1704C23.0606 48.2313 23.1324 48.3067 23.185 48.387L23.3884 48.6816L23.4362 48.7546L23.5224 48.8812L23.5272 48.8885L23.7233 48.8714L24.0679 48.8373L24.4148 48.8081L24.7617 48.7765L25.1062 48.7376C25.1851 48.7302 25.2641 48.757 25.3239 48.8154L25.7354 49.2341L25.7163 49.2414L25.6971 49.2463L25.3502 49.3509L25.3239 49.3582L25.0105 49.4532L24.9842 49.4605L24.8215 49.5116L24.7234 49.5408L24.6971 49.5481L24.41 49.6382L24.3837 49.6455L24.1014 49.7307L24.1109 49.7428L24.2377 49.9278L24.331 50.086C24.343 50.1031 24.355 50.1201 24.3693 50.1347L24.7425 50.5144C24.7665 50.5388 24.7665 50.5777 24.7617 50.6094C24.7593 50.6118 24.7617 50.6118 24.7593 50.6118C24.7282 50.6191 24.6947 50.6094 24.6708 50.585L24.2975 50.2053C24.2832 50.1907 24.2664 50.1761 24.2497 50.1664L24.0942 50.0714L23.9123 49.9424L23.9004 49.9351L23.8166 50.2223L23.8095 50.2491L23.7233 50.5436L23.7162 50.5704L23.6875 50.6702L23.6372 50.8357L23.63 50.8625L23.5367 51.1814L23.5296 51.2081L23.4267 51.5611L23.4219 51.5806L23.4147 51.6L23.0032 51.1814C22.9482 51.123 22.9195 51.0402 22.9267 50.9599L22.9649 50.6094L22.996 50.2589L23.0247 49.9059L23.0558 49.553L23.0726 49.3534L23.0654 49.3485L22.941 49.2609L22.8692 49.2122L22.5774 49.0053C22.4984 48.9518 22.4242 48.8812 22.3644 48.8081L22.3596 48.8106L21.7544 48.1923L20.5533 46.9655C20.4194 46.8292 20.1873 46.8755 20.1179 47.0605L19.9696 47.4524L19.9457 47.5108L19.6992 48.1558L19.6753 48.2142L19.4552 48.7935L19.4337 48.852L19.1681 49.553L19.1657 49.5505L19.1442 49.6114L18.8332 50.4317L18.8164 50.4779L18.5532 50.2077L17.924 49.5651C17.8618 49.5019 17.8331 49.4094 17.8523 49.3217L18.0293 48.4309L18.1633 47.669L18.2996 46.9096L18.4264 46.211L18.424 46.2085C18.4384 46.1939 18.4408 46.1745 18.4336 46.155C18.4336 46.155 18.4336 46.155 18.4336 46.1526V46.1477L18.6131 45.1497C18.6298 45.0621 18.6011 44.9745 18.5413 44.9112L17.7063 44.0568C17.1369 43.4678 16.8139 42.8665 16.9383 42.6548C16.9383 42.6523 16.9383 42.6523 16.9407 42.6523C17.1513 42.5282 17.7422 42.8544 18.3188 43.4337L19.1585 44.2832Z" fill="#E7E7E7"/>
</svg>
