<svg width="46" height="67" viewBox="0 0 46 67" fill="none" xmlns="http://www.w3.org/2000/svg">
<path fill-rule="evenodd" clip-rule="evenodd" d="M22.9999 15.2807C26.3427 15.2807 29.0525 12.6494 29.0525 9.40351C29.0525 6.15763 26.3427 3.52632 22.9999 3.52632C19.6571 3.52632 16.9473 6.15763 16.9473 9.40351C16.9473 12.6494 19.6571 15.2807 22.9999 15.2807ZM22.9999 18.807C28.3483 18.807 32.6841 14.5969 32.6841 9.40351C32.6841 4.21009 28.3483 0 22.9999 0C17.6514 0 13.3157 4.21009 13.3157 9.40351C13.3157 14.5969 17.6514 18.807 22.9999 18.807Z" fill="#0B0B77"/>
<path d="M0 30.5614C0 18.227 10.2975 8.22803 23 8.22803C35.7025 8.22803 46 18.227 46 30.5614V62.2982C46 64.8949 43.8321 67 41.1579 67H4.84211C2.16788 67 0 64.8949 0 62.2982V30.5614Z" fill="#4141E5"/>
<path fill-rule="evenodd" clip-rule="evenodd" d="M15.0379 17.0227C15.8028 16.5215 16.8573 16.1429 17.9959 15.8698C21.1088 15.1233 24.3736 15.1143 27.5083 15.7314C28.7829 15.9823 29.9661 16.3544 30.824 16.8764C31.6638 17.3875 32.0642 17.9544 32.1185 18.6159C32.2063 19.686 32.0532 20.3351 31.8086 20.7566C31.5751 21.1587 31.1738 21.4989 30.4391 21.7864C26.1467 23.4664 19.8162 23.4588 15.6736 21.6602C14.9476 21.345 14.4982 20.9782 14.2311 20.5566C13.9673 20.1403 13.8012 19.5441 13.8821 18.6223C13.9332 18.0393 14.2864 17.5151 15.0379 17.0227ZM22.4318 12.9316C22.4318 12.9316 22.4321 12.9316 22.4359 13.1025C22.4323 12.9316 22.4336 12.9315 22.4336 12.9315L22.4361 12.9315L22.444 12.9314L22.471 12.931C22.4939 12.9307 22.5265 12.9303 22.5682 12.9301C22.6516 12.9296 22.7715 12.9296 22.9227 12.9313C23.2248 12.9348 23.6535 12.945 24.1679 12.9723C25.1919 13.0266 26.5776 13.1495 27.9893 13.4274C29.3843 13.702 30.8943 14.1448 32.1097 14.8844C33.3433 15.6351 34.3963 16.777 34.5319 18.4292C34.6411 19.7607 34.4851 20.9334 33.9176 21.911C33.4662 22.6886 32.8108 23.2466 32.0314 23.6552C33.471 23.939 34.8966 24.3756 36.0711 25.071C37.6404 26.0002 38.8179 27.437 38.8824 29.5267C38.9494 31.6999 37.6669 33.2277 36.0278 34.2375C34.9183 34.9211 33.582 35.4143 32.2129 35.774C34.3162 36.2715 36.4554 36.9708 38.1009 37.9679C39.8764 39.0437 41.3523 40.6548 41.1378 42.9172C40.7712 46.7821 37.2961 48.9787 33.6803 50.1764C29.9834 51.4009 25.6121 51.7775 22.4316 51.7122C19.4622 51.6513 15.3674 51.1667 11.898 49.9186C8.51133 48.7004 5.2296 46.5616 4.86395 42.9236C4.64728 40.7679 6.04629 39.2059 7.71068 38.1501C9.38486 37.0881 11.6045 36.342 13.7346 35.8126C13.8028 35.7956 13.8711 35.7788 13.9393 35.7623C12.4576 35.3756 10.9772 34.8314 9.77966 34.0535C8.25178 33.0611 7.05165 31.5862 7.11878 29.5248C7.18231 27.574 8.21782 26.1916 9.64016 25.2681C10.972 24.4033 12.6633 23.9195 14.2986 23.626C13.4388 23.1955 12.6888 22.609 12.1689 21.7884C11.5691 20.8415 11.3567 19.7115 11.4698 18.4227C11.6041 16.8911 12.5664 15.8061 13.6837 15.074C14.7875 14.3507 16.1551 13.8898 17.4154 13.5875C18.6908 13.2817 19.941 13.1189 20.8642 13.032C21.3281 12.9884 21.7148 12.9634 21.9876 12.9493C22.1241 12.9422 22.2325 12.9378 22.3081 12.9352C22.3459 12.9339 22.3755 12.933 22.3964 12.9324L22.4212 12.9318L22.4285 12.9316L22.4318 12.9316ZM36.8192 39.9623C35.3811 39.0909 33.3335 38.4307 31.1544 37.9468C25.471 36.6848 19.9691 36.6897 14.3349 38.09C12.2919 38.5978 10.3764 39.2672 9.03479 40.1183C7.68341 40.9755 7.18599 41.824 7.27356 42.6953C7.49423 44.8908 9.5209 46.5566 12.739 47.7142C15.8742 48.8419 19.6804 49.3044 22.4827 49.3619C25.4807 49.4234 29.5506 49.0603 32.8986 47.9514C36.3277 46.8156 38.5009 45.0851 38.7269 42.7017C38.8184 41.7367 38.263 40.8371 36.8192 39.9623ZM23.3966 35.0952C31.0619 35.0952 37.2759 32.774 37.2759 29.9107C37.2759 27.0474 31.0619 24.7262 23.3966 24.7262C15.7313 24.7262 9.51729 27.0474 9.51729 29.9107C9.51729 32.774 15.7313 35.0952 23.3966 35.0952Z" fill="#B8B8F4"/>
<path d="M0 50.5438H46V62.2982C46 64.8949 43.8321 66.9999 41.1579 66.9999H4.84211C2.16788 66.9999 0 64.8949 0 62.2982V50.5438Z" fill="#0B0B77"/>
<path d="M7.26318 57.5965H38.7369V59.9474C38.7369 61.2457 37.6529 62.2982 36.3158 62.2982H9.68424C8.34713 62.2982 7.26318 61.2457 7.26318 59.9474V57.5965Z" fill="#2C2C9E"/>
<path d="M7.26318 47.0176H38.7369V57.5965C38.7369 58.8949 37.6529 59.9474 36.3158 59.9474H9.68424C8.34713 59.9474 7.26318 58.8949 7.26318 57.5965V47.0176Z" fill="#4141E5"/>
<path d="M7.26318 44.6666C7.26318 42.7191 8.8891 41.1403 10.8948 41.1403H35.1053C37.111 41.1403 38.7369 42.7191 38.7369 44.6666V45.8421H7.26318V44.6666Z" fill="#0B0B77"/>
<path d="M7.26318 45.8421H38.7369V48.193H7.26318V45.8421Z" fill="#2C2C9E"/>
<path d="M23.0001 49.3684L27.8422 54.0702L23.0001 58.7719L18.158 54.0702L23.0001 49.3684Z" fill="#0B0B77"/>
<path d="M21.5088 52.19C21.5088 51.9303 21.7255 51.7198 21.9929 51.7198C22.2603 51.7198 22.4771 51.9303 22.4771 52.19V55.9509C22.4771 56.2105 22.2603 56.421 21.9929 56.421C21.7255 56.421 21.5088 56.2105 21.5088 55.9509V52.19Z" fill="#B8B8F4"/>
<path d="M23.4457 52.1895C23.4457 51.9298 23.6624 51.7194 23.9298 51.7194C24.1972 51.7194 24.414 51.9298 24.414 52.1895V55.9504C24.414 56.21 24.1972 56.4205 23.9298 56.4205C23.6624 56.4205 23.4457 56.21 23.4457 55.9504V52.1895Z" fill="#B8B8F4"/>
<path d="M6.05261 29.3859C6.05261 28.7367 6.59458 28.2105 7.26314 28.2105H9.68419C10.3527 28.2105 10.8947 28.7367 10.8947 29.3859C10.8947 30.0351 10.3527 30.5613 9.68419 30.5613H7.26314C6.59458 30.5613 6.05261 30.0351 6.05261 29.3859Z" fill="#0B0B77"/>
<path d="M10.8949 18.807C10.8949 18.1578 11.4369 17.6315 12.1054 17.6315H13.316C13.9845 17.6315 14.5265 18.1578 14.5265 18.807C14.5265 19.4561 13.9845 19.9824 13.316 19.9824H12.1054C11.4369 19.9824 10.8949 19.4561 10.8949 18.807Z" fill="#0B0B77"/>
<path d="M3.63171 42.3157C3.63171 41.6666 4.17368 41.1403 4.84224 41.1403H7.26329C7.93185 41.1403 8.47382 41.6666 8.47382 42.3157C8.47382 42.9649 7.93185 43.4912 7.26329 43.4912H4.84224C4.17368 43.4912 3.63171 42.9649 3.63171 42.3157Z" fill="#0B0B77"/>
<path d="M35.1051 29.3859C35.1051 28.7367 35.6471 28.2105 36.3156 28.2105H38.7367C39.4052 28.2105 39.9472 28.7367 39.9472 29.3859C39.9472 30.0351 39.4052 30.5613 38.7367 30.5613H36.3156C35.6471 30.5613 35.1051 30.0351 35.1051 29.3859Z" fill="#0B0B77"/>
<path d="M37.5262 42.3157C37.5262 41.6666 38.0682 41.1403 38.7368 41.1403H41.1578C41.8264 41.1403 42.3683 41.6666 42.3683 42.3157C42.3683 42.9649 41.8264 43.4912 41.1578 43.4912H38.7368C38.0682 43.4912 37.5262 42.9649 37.5262 42.3157Z" fill="#0B0B77"/>
<path d="M31.4738 18.807C31.4738 18.1578 32.0157 17.6315 32.6843 17.6315H33.8948C34.5634 17.6315 35.1053 18.1578 35.1053 18.807C35.1053 19.4561 34.5634 19.9824 33.8948 19.9824H32.6843C32.0157 19.9824 31.4738 19.4561 31.4738 18.807Z" fill="#0B0B77"/>
<path d="M10.8949 45.8421H13.3159V50.5439H10.8949V45.8421Z" fill="#B8B8F4"/>
<path fill-rule="evenodd" clip-rule="evenodd" d="M12.1054 52.8948C12.7739 52.8948 13.3159 52.3685 13.3159 51.7193C13.3159 51.0702 12.7739 50.5439 12.1054 50.5439C11.4368 50.5439 10.8949 51.0702 10.8949 51.7193C10.8949 52.3685 11.4368 52.8948 12.1054 52.8948ZM12.1054 54.0702C13.4425 54.0702 14.5264 53.0177 14.5264 51.7193C14.5264 50.421 13.4425 49.3685 12.1054 49.3685C10.7683 49.3685 9.68433 50.421 9.68433 51.7193C9.68433 53.0177 10.7683 54.0702 12.1054 54.0702Z" fill="#B8B8F4"/>
<path fill-rule="evenodd" clip-rule="evenodd" d="M2.42105 50.5438V62.2982C2.42105 63.5965 3.50499 64.6491 4.84211 64.6491H41.1579C42.495 64.6491 43.5789 63.5965 43.5789 62.2982V50.5438H46V62.2982C46 64.8949 43.8321 66.9999 41.1579 66.9999H4.84211C2.16788 66.9999 0 64.8949 0 62.2982V50.5438H2.42105Z" fill="#2C2C9E"/>
</svg>
