<svg width="30" height="34" viewBox="0 0 30 34" fill="none" xmlns="http://www.w3.org/2000/svg">
<path d="M0 31.1296C7.54159 34.9568 24.5656 34.9568 30 31.1296C30 22.865 23.2902 17.9284 15.0277 17.9284C6.76525 17.9284 0 22.8095 0 31.1296Z" fill="#0B0B77"/>
<path d="M6.70978 10.6067C11.5896 11.4387 16.3031 11.6051 22.5693 10.6622C24.4547 5.83656 21.7375 1.39919 18.4658 1.56559C17.9667 0.78905 18.3549 1.06639 17.5785 0.0125103C8.76154 -0.320293 5.43436 6.05843 6.70978 10.6067Z" fill="#1111B7"/>
<path d="M14.9168 23.8079C17.0795 23.8079 18.7985 22.0884 18.7985 19.9252V16.3753C18.7985 14.2676 17.0795 12.4926 14.9168 12.4926C12.8096 12.4926 11.0351 14.2121 11.0351 16.3753V19.9252C11.0351 22.0884 12.7541 23.8079 14.9168 23.8079Z" fill="#B8B8F4"/>
<path d="M14.695 20.3135H15.1941C17.3013 20.3135 19.0758 18.594 19.0758 16.4308C19.0758 14.323 17.3567 12.5481 15.1941 12.5481H14.695C12.5878 12.5481 10.8133 14.2676 10.8133 16.4308C10.8133 18.5385 12.5878 20.3135 14.695 20.3135Z" fill="#7474F9"/>
<path d="M7.04252 13.491H22.3475C23.1793 13.491 23.8447 12.8254 23.8447 11.9934C23.8447 11.1614 23.1793 10.4958 22.3475 10.4958H7.04252C6.21072 10.4958 5.54529 11.1614 5.54529 11.9934C5.54529 12.8254 6.21072 13.491 7.04252 13.491Z" fill="#B8B8F4"/>
<path d="M22.6802 9.99661C22.6802 14.3785 19.1312 18.6495 14.7504 18.6495C10.3696 18.6495 6.7652 14.3785 6.7652 9.99661C6.7652 5.6147 10.3142 2.00934 14.695 2.00934C19.0757 2.00934 22.6802 5.55924 22.6802 9.99661Z" fill="#B8B8F4"/>
<path d="M6.76527 10.4958L7.54161 11.5497V8.60989L18.1886 4.06159L22.1257 8.88723L22.0148 11.3278L22.6248 10.6622C22.6248 10.6622 24.6211 1.6765 14.9723 1.62103C5.98893 1.62103 6.76527 10.4958 6.76527 10.4958Z" fill="#1111B7"/>
<path d="M17.4122 12.3817C17.9328 12.3817 18.3549 11.9595 18.3549 11.4387C18.3549 10.918 17.9328 10.4958 17.4122 10.4958C16.8915 10.4958 16.4695 10.918 16.4695 11.4387C16.4695 11.9595 16.8915 12.3817 17.4122 12.3817Z" fill="#0B0B77"/>
<path d="M12.0333 12.3817C12.5539 12.3817 12.976 11.9595 12.976 11.4387C12.976 10.918 12.5539 10.4958 12.0333 10.4958C11.5126 10.4958 11.0906 10.918 11.0906 11.4387C11.0906 11.9595 11.5126 12.3817 12.0333 12.3817Z" fill="#0B0B77"/>
</svg>
