<svg width="18" height="15" viewBox="0 0 18 15" fill="none" xmlns="http://www.w3.org/2000/svg">
<path d="M1.02856 0.134485C0.531508 0.134485 0.128564 0.537429 0.128564 1.03448C0.128564 1.53154 0.531508 1.93448 1.02856 1.93448V0.134485ZM4.37142 1.03448L5.23817 0.792105L5.05427 0.134485H4.37142V1.03448ZM6.68571 10.8621L5.80919 11.0663L5.97133 11.7621H6.68571V10.8621ZM15.4286 11.7621C15.9256 11.7621 16.3286 11.3591 16.3286 10.8621C16.3286 10.365 15.9256 9.96207 15.4286 9.96207V11.7621ZM16.4571 2.06897L17.3428 2.22907L17.5344 1.16897H16.4571V2.06897ZM15.4286 7.75862V8.65862H16.1805L16.3142 7.91873L15.4286 7.75862ZM5.96249 7.75862L5.08516 7.95936L5.08598 7.96288L5.96249 7.75862ZM1.02856 1.93448H4.37142V0.134485H1.02856V1.93448ZM6.68571 11.7621H15.4286V9.96207H6.68571V11.7621ZM3.50467 1.27686L3.79396 2.31135L5.52746 1.82659L5.23817 0.792105L3.50467 1.27686ZM4.66071 2.96897H16.4571V1.16897H4.66071V2.96897ZM15.5715 1.90886L14.5429 7.59852L16.3142 7.91873L17.3428 2.22907L15.5715 1.90886ZM3.78338 2.2697L5.08516 7.95935L6.83982 7.55789L5.53804 1.86824L3.78338 2.2697ZM5.08598 7.96288L5.80919 11.0663L7.56222 10.6578L6.83901 7.55436L5.08598 7.96288ZM15.4286 6.85862H5.96249V8.65862H15.4286V6.85862Z" fill="white"/>
<ellipse cx="8.22858" cy="13.9655" rx="1.02857" ry="1.03448" fill="white"/>
<ellipse cx="13.8857" cy="13.9655" rx="1.02857" ry="1.03448" fill="white"/>
<path fill-rule="evenodd" clip-rule="evenodd" d="M8.74288 4.65516V2.84482H9.25717V4.65516H12.3429V2.84482H12.8572V4.65516H15.9429V5.1724H12.8572V6.98275H12.3429V5.1724H9.25717V6.98275H8.74288V5.1724H5.40002V4.65516H8.74288Z" fill="white"/>
</svg>
