<svg width="16" height="20" viewBox="0 0 16 20" fill="none" xmlns="http://www.w3.org/2000/svg">
<path d="M14.6916 10.035C15.0654 10.035 15.3645 10.1399 15.6262 10.3846C15.8879 10.6294 16 10.9091 16 11.2587V18.7762C16 19.1259 15.8879 19.4056 15.6262 19.6504C15.3645 19.8951 15.0654 20 14.6916 20H1.30841C0.934579 20 0.635514 19.8951 0.373832 19.6504C0.11215 19.4056 5.57053e-10 19.1259 5.57053e-10 18.7762V11.2937C5.57053e-10 10.9441 0.11215 10.6643 0.373832 10.4196C0.635514 10.1748 0.934579 10.0699 1.30841 10.0699H1.75701V5.87413C1.75701 4.26573 2.35514 2.9021 3.58878 1.74825C4.82243 0.559441 6.28037 0 8 0C9.71963 0 11.1776 0.559441 12.4112 1.71329C13.6449 2.86713 14.243 4.23077 14.243 5.83916C14.243 6.04895 14.1682 6.25874 13.9813 6.43357C13.7944 6.60839 13.6075 6.67832 13.3458 6.67832H12.4486C12.2243 6.67832 12 6.60839 11.8131 6.43357C11.6262 6.25874 11.5514 6.08392 11.5514 5.83916C11.5514 4.93007 11.215 4.12587 10.5047 3.46154C9.79439 2.7972 8.97196 2.48252 7.96262 2.48252C6.99065 2.48252 6.13084 2.7972 5.42056 3.46154C4.71028 4.12587 4.4486 4.93007 4.4486 5.83916V10.035H14.6916Z" fill="white"/>
</svg>
