<svg width="86" height="40" viewBox="0 0 86 40" fill="none" xmlns="http://www.w3.org/2000/svg">
<path d="M63.1984 14.1991H71.5054L61.669 27.1855H53.3568L63.1984 14.1991ZM62.5726 12.9304L52.1145 26.7457C51.8644 27.0749 51.8234 27.4907 52.0073 27.8558C52.1833 28.2196 52.559 28.4568 52.9546 28.4568H62.2908L72.8337 14.5389C73.0639 14.2284 73.0969 13.8233 72.9355 13.4821C72.7649 13.141 72.4235 12.9318 72.0346 12.9318H62.5726V12.9304ZM32.7064 6.19136C32.758 6.09941 32.8585 6.03945 32.971 6.03945H38.4163L39.1995 1.5072C39.2273 1.36594 39.349 1.26732 39.4946 1.26732L44.592 1.26466C44.6859 1.26466 44.764 1.29131 44.8182 1.35128C44.8725 1.42324 44.8989 1.51386 44.887 1.59915L44.3803 4.53092L68.3501 4.54824C68.4797 4.54824 68.5723 4.62687 68.6187 4.70416C68.6464 4.7588 68.6835 4.8734 68.6054 4.98001L66.441 7.82783L84.2073 7.82383C84.3105 7.82383 84.3873 7.89046 84.415 7.94909C84.4428 7.99174 84.4666 8.07969 84.4124 8.15965L69.7736 27.4707C69.5249 27.7998 69.4852 28.2156 69.6665 28.5834C69.8411 28.9472 70.2181 29.1804 70.6137 29.1804H80.7993C80.9211 29.1804 80.9872 29.2431 81.0216 29.2804C81.0785 29.3444 81.1023 29.4323 81.0891 29.5176L80.2979 34.0898C80.2754 34.2257 80.1524 34.327 80.0042 34.327H39.8412C39.8875 34.5522 39.906 34.7735 39.906 35.0133C39.906 37.0589 38.2602 38.718 36.2255 38.718C34.1921 38.718 32.5423 37.0589 32.5423 35.0133C32.5423 32.9638 34.1907 31.3046 36.2255 31.3046C37.6159 31.3046 38.8238 32.0802 39.4536 33.2249L55.5595 11.9536C55.8162 11.4046 55.6865 11.2074 55.5476 10.8849C55.4457 10.641 55.0555 10.3905 54.6334 10.3931H43.359L40.4789 26.9643C40.4498 27.0949 40.3267 27.1855 40.1891 27.1855H35.0864C34.97 27.1855 34.8959 27.1202 34.8628 27.0842C34.8297 27.0482 34.7742 26.9643 34.7953 26.847L37.9242 8.85928L25.2024 33.9965C25.086 34.1991 24.8756 34.3284 24.6362 34.3284H20.2994C20.146 34.3284 20.019 34.2178 20.0044 34.0832L18.8111 15.8449L9.40735 34.0005C9.29489 34.2004 9.07792 34.3297 8.84376 34.3297L4.45014 34.3284C4.298 34.3284 4.17099 34.2151 4.15908 34.0712L1.28822 6.35261C1.28425 6.26466 1.31335 6.1807 1.36495 6.12207C1.41787 6.0661 1.49328 6.03945 1.58589 6.03945H7.49564C7.65837 6.03945 7.79331 6.17271 7.79331 6.34595L8.67838 24.427L17.3717 6.19536C17.418 6.10075 17.5238 6.04078 17.6336 6.04078H23.0208C23.1703 6.04078 23.3013 6.15405 23.3119 6.28598L24.1877 24.4856L32.7064 6.19136ZM39.2458 0C38.636 0 38.12 0.4371 38.0102 1.04478L37.3593 4.77345H32.7765C32.3108 4.77345 31.8927 5.02665 31.6546 5.46509L25.2051 19.3284L24.5634 5.92884C24.5092 5.27719 23.9641 4.77345 23.3119 4.77345H17.4471C16.9801 4.77345 16.5475 5.03465 16.3239 5.46775L9.69179 19.383L9.03559 6.03278C9.03559 5.33582 8.47068 4.77212 7.7814 4.77212H1.25646C0.900582 4.77212 0.568514 4.91205 0.330377 5.16525C0.0975328 5.42244 -0.0228584 5.77825 0.00360118 6.15139L2.92871 34.459C3.00015 35.1013 3.53464 35.5824 4.17893 35.5824L9.02765 35.585C9.62299 35.585 10.1654 35.2585 10.4432 34.7268L17.8506 20.4291L18.7635 34.4576C18.8389 35.0999 19.3747 35.581 20.011 35.581L24.824 35.5837C25.4181 35.5837 25.9658 35.2532 26.2449 34.7188L35.2438 16.9376L33.5015 26.9656C33.4366 27.3348 33.5398 27.7106 33.774 28.0024C34.0121 28.2862 34.3627 28.4528 34.7358 28.4528H40.4418C41.0319 28.4528 41.5386 28.0357 41.6696 27.4374L44.4134 11.6578H54.2154L39.4046 31.19C38.5169 30.4411 37.3963 30.0346 36.2361 30.0346C33.5134 30.0346 31.2908 32.2695 31.2908 35.0173C31.2908 37.7652 33.5121 40 36.2361 40C38.7405 40 40.8705 38.0744 41.1589 35.585L80.2596 35.5824C80.8748 35.5824 81.392 35.1426 81.4926 34.5363L82.3869 29.407C82.4504 29.0392 82.3486 28.6501 82.1104 28.3689C81.8763 28.0864 81.523 27.9211 81.1499 27.9211H71.0106L85.7949 8.43284C86.045 8.05437 86.0661 7.59728 85.8597 7.20549C85.656 6.8097 85.2485 6.5605 84.8053 6.5605H68.9851L69.9893 5.24121C70.2512 4.84408 70.2777 4.36434 70.0541 3.94323C69.8345 3.53012 69.4124 3.26626 68.9494 3.26626H45.8727L46.1889 1.48054C46.2471 1.11407 46.1386 0.723614 45.8978 0.438433C45.6623 0.154584 45.3249 0 44.9479 0H39.2458Z" fill="white"/>
</svg>
