<svg width="112" height="53" viewBox="0 0 112 53" fill="none" xmlns="http://www.w3.org/2000/svg">
<path d="M82.3442 18.6263H93.1478L80.3679 35.6786H69.5644L82.3442 18.6263ZM81.422 16.9211L67.8516 35.0227C67.5881 35.4162 67.4564 35.9409 67.7199 36.4656C67.9834 36.9903 68.3786 37.2526 68.9056 37.2526H81.0267L94.7288 19.0198C94.9923 18.6263 95.124 18.1016 94.8605 17.5769C94.597 17.1834 94.2018 16.9211 93.6748 16.9211H81.422ZM42.5555 8.13261C42.6872 8.00144 42.819 7.87027 42.9507 7.87027H50.0653L51.1193 1.96757C51.1193 1.8364 51.251 1.70523 51.5145 1.70523H58.1021C58.2338 1.70523 58.3656 1.70523 58.3656 1.8364C58.4973 1.96757 58.4973 2.09874 58.4973 2.09874L57.8386 5.9027H89.0635C89.1952 5.9027 89.327 6.03387 89.4587 6.16504C89.4587 6.29622 89.5905 6.42739 89.4587 6.55856L86.692 10.2314H109.88C110.012 10.2314 110.144 10.3625 110.144 10.3625C110.144 10.3625 110.275 10.4937 110.144 10.6249L90.6445 36.2032C90.381 36.4656 90.381 37.2526 90.6445 37.515C90.7763 37.7773 91.3033 38.302 91.6985 38.302H105.269C105.401 38.302 105.532 38.4332 105.532 38.4332C105.664 38.5643 105.664 38.6955 105.664 38.6955L104.61 44.7294C104.61 44.8605 104.478 44.9917 104.215 44.9917H52.7003H51.9098C51.9098 45.2541 52.0415 45.6476 52.0415 45.9099C52.0415 48.5333 49.9335 50.7632 47.2985 50.7632C44.6635 50.7632 42.5555 48.5333 42.5555 45.9099C42.5555 43.2865 44.6635 41.0566 47.2985 41.0566C49.143 41.0566 50.724 42.1059 51.5145 43.5488L72.4629 15.6094C72.8582 14.9535 72.5947 14.6912 72.4629 14.1665C72.3311 13.9041 71.8041 13.5106 71.2771 13.5106H56.5211L52.832 35.285C52.832 35.4162 52.7003 35.5474 52.4368 35.5474H45.8493C45.7175 35.5474 45.5858 35.4162 45.5858 35.4162C45.5858 35.4162 45.454 35.285 45.454 35.1539L49.5383 11.5431L32.8059 44.5982C32.6742 44.8605 32.4107 44.9917 32.0154 44.9917H26.3501C26.0866 44.9917 25.9549 44.8605 25.9549 44.7294L24.3739 20.725L12.2528 44.5982C12.1211 44.8605 11.8576 44.9917 11.4623 44.9917H5.79703C5.66528 44.9917 5.40178 44.8605 5.40178 44.5982L1.71276 8.26378C1.71276 8.13261 1.71276 8.00144 1.84451 8.00144C1.97626 7.87027 1.97626 7.87027 2.10801 7.87027H9.74955C10.0131 7.87027 10.1448 8.00144 10.1448 8.26378L11.3306 32.0058L22.6611 8.13261C22.6611 8.00144 22.9246 7.87027 23.0564 7.87027H30.0392C30.1709 7.87027 30.4344 8.00144 30.4344 8.13261L31.6202 32.0058L42.5555 8.13261ZM51.1193 -2.50189e-07C50.3288 -2.50189e-07 49.67 0.524684 49.5383 1.31171L48.7478 6.16504H42.819C42.1602 6.16504 41.6332 6.55856 41.3697 7.08324L32.8059 25.316L32.0154 7.7391C31.8837 6.95207 31.2249 6.16504 30.4344 6.16504H22.7929C22.1341 6.16504 21.6071 6.55856 21.3436 7.08324L12.6481 25.316L11.7258 7.87027C11.7258 6.95207 10.9353 6.16504 10.1448 6.16504H1.58101C1.05401 6.16504 0.658754 6.29622 0.395252 6.68973C0.131751 7.08324 0 7.47676 0 8.00144L3.82077 45.1229C3.95252 45.9099 4.61128 46.5658 5.40178 46.5658H11.7258C12.5163 46.5658 13.1751 46.1722 13.5703 45.3852L23.1881 26.6277L24.3739 44.9917C24.5056 45.7787 25.1644 46.4346 25.9549 46.4346H32.2789C33.0694 46.4346 33.7282 46.0411 34.1234 45.2541L45.8493 21.9056L43.6095 35.0227C43.4777 35.5474 43.6095 35.9409 44.0047 36.3344C44.2682 36.7279 44.7952 36.8591 45.1905 36.8591H52.5685C53.359 36.8591 54.0178 36.3344 54.1495 35.5474L57.7068 14.8223H70.4866L51.251 40.9254C50.0653 40.0072 48.616 39.3513 47.1668 39.3513C43.6095 39.3513 40.711 42.2371 40.711 45.9099C40.711 49.4515 43.6095 52.4685 47.1668 52.4685C50.4605 52.4685 53.2273 49.9762 53.6225 46.6969H104.478C105.269 46.6969 105.928 46.1722 106.059 45.3852L107.245 38.6955C107.377 38.1708 107.245 37.7773 106.85 37.3838C106.586 36.9903 106.059 36.8591 105.664 36.8591H92.489L111.725 11.2807C111.988 10.756 112.12 10.2314 111.856 9.70667C111.593 9.18198 111.066 8.91964 110.539 8.91964H89.854L91.1715 7.21442C91.5667 6.68973 91.5668 6.03387 91.3033 5.50919C91.0398 4.9845 90.5127 4.59099 89.854 4.59099H59.6831L60.0783 2.22991C60.2101 1.70522 60.0783 1.18054 59.6831 0.918198C59.4196 0.524684 58.8926 0.393514 58.4973 0.393514H51.1193V-2.50189e-07Z" fill="url(#paint0_linear)"/>
<defs>
<linearGradient id="paint0_linear" x1="56" y1="0" x2="56" y2="52.4685" gradientUnits="userSpaceOnUse">
<stop stop-color="#C6007E"/>
<stop offset="0.666667" stop-color="#671E75"/>
<stop offset="1" stop-color="#06038D"/>
<stop offset="1" stop-color="#06038D"/>
</linearGradient>
</defs>
</svg>
