<svg width="106" height="96" viewBox="0 0 106 96" fill="none" xmlns="http://www.w3.org/2000/svg">
<path d="M105.06 61.9868L102.74 62.6968L56.51 35.9968C54.32 34.7368 50.51 34.8968 47.96 36.3568L2.11 62.8268L2 62.8968L0 62.2868V65.2868C0 65.3968 0 65.5068 0 65.6268V65.8668C0.0827702 66.2659 0.255486 66.6409 0.50502 66.9632C0.754554 67.2855 1.07433 67.5466 1.44 67.7268L48.52 94.9068C50.71 96.1668 54.52 96.0168 57.08 94.5468L103.06 68.1168C103.594 67.8777 104.063 67.5126 104.425 67.0528C104.787 66.593 105.033 66.0522 105.14 65.4768L105.06 61.9868Z" fill="#020055"/>
<path d="M48.6103 91.7568L1.53027 64.6167C-0.659734 63.3567 -0.379739 61.1467 2.15026 59.6867L48.0003 33.2167C50.5303 31.7467 54.3603 31.5867 56.5503 32.8567L103.63 60.0368C105.82 61.3068 105.55 63.5167 103.01 64.9767L57.1703 91.4467C54.6303 92.8667 50.8003 93.0268 48.6103 91.7568Z" fill="#06038D"/>
<path d="M105.06 46.9868L102.74 47.6968L56.51 20.9968C54.32 19.7368 50.51 19.8968 47.96 21.3568L2.11 47.8268L2 47.8968L0 47.2868V50.2868C0 50.3968 0 50.5068 0 50.6268V50.8668C0.0827702 51.2659 0.255486 51.6409 0.50502 51.9632C0.754554 52.2855 1.07433 52.5466 1.44 52.7268L48.52 79.9068C50.71 81.1668 54.52 81.0168 57.08 79.5468L103.06 53.1168C103.594 52.8777 104.063 52.5126 104.425 52.0528C104.787 51.593 105.033 51.0522 105.14 50.4768L105.06 46.9868Z" fill="#6F9A37"/>
<path d="M48.6103 76.7568L1.53027 49.6167C-0.659734 48.3567 -0.379739 46.1467 2.15026 44.6867L48.0003 18.2167C50.5303 16.7467 54.3603 16.5867 56.5503 17.8567L103.63 45.0368C105.82 46.3068 105.55 48.5167 103.01 49.9767L57.1703 76.4467C54.6303 77.8667 50.8003 78.0268 48.6103 76.7568Z" fill="#82B440"/>
<path d="M105.06 29.9868L102.74 30.6968L56.51 3.99677C54.32 2.73677 50.51 2.89676 47.96 4.35676L2.11 30.8268L2 30.8968L0 30.2868V33.2868C0 33.3968 0 33.5068 0 33.6268V33.8668C0.0827702 34.2659 0.255486 34.6409 0.50502 34.9632C0.754554 35.2855 1.07433 35.5466 1.44 35.7268L48.52 62.9068C50.71 64.1668 54.52 64.0168 57.08 62.5468L103.06 36.1168C103.594 35.8777 104.063 35.5126 104.425 35.0528C104.787 34.593 105.033 34.0522 105.14 33.4768L105.06 29.9868Z" fill="#020055"/>
<path d="M48.6103 59.7568L1.53027 32.6167C-0.659734 31.3567 -0.379739 29.1467 2.15026 27.6867L48.0003 1.21675C50.5303 -0.253252 54.3603 -0.413268 56.5503 0.856732L103.63 28.0368C105.82 29.3068 105.55 31.5167 103.01 32.9767L57.1703 59.4467C54.6303 60.8667 50.8003 61.0268 48.6103 59.7568Z" fill="#06038D"/>
</svg>
