<?xml version="1.0" encoding="iso-8859-1"?>
<!-- Generator: Adobe Illustrator 19.0.0, SVG Export Plug-In . SVG Version: 6.00 Build 0)  -->
<svg version="1.1" id="Capa_1" xmlns="http://www.w3.org/2000/svg" xmlns:xlink="http://www.w3.org/1999/xlink" x="0px" y="0px"
	  fill="#82b440" viewBox="0 0 480 480" style="enable-background:new 0 0 480 480;" xml:space="preserve">
<g>
	<g>
		<rect x="220.024" y="32" width="16" height="16"/>
	</g>
</g>
<g>
	<g>
		<rect x="252.024" y="32" width="16" height="16"/>
	</g>
</g>
<g>
	<g>
		<rect x="276.024" y="120" width="16" height="16"/>
	</g>
</g>
<g>
	<g>
		<rect x="172.024" y="280" width="16" height="16"/>
	</g>
</g>
<g>
	<g>
		<rect x="236.024" y="432" width="16" height="16"/>
	</g>
</g>
<g>
	<g>
		<path d="M460.024,216h-64V32c0-17.673-14.327-32-32-32h-240c-17.673,0-32,14.327-32,32v88h-32c-8.837,0-16,7.163-16,16v0.8
			c-21.65,4.396-35.636,25.51-31.24,47.16c3.196,15.741,15.499,28.044,31.24,31.24v0.8c0,8.837,7.163,16,16,16v80
			c0,13.255,10.745,24,24,24c2.732-0.027,5.438-0.524,8-1.472V448c0,17.673,14.327,32,32,32h240c17.673,0,32-14.327,32-32v-88h64
			c4.418,0,8-3.582,8-8V224C468.024,219.582,464.442,216,460.024,216z M44.024,198.632c-9.582-3.403-15.988-12.464-16-22.632
			c0.012-10.168,6.418-19.229,16-22.632V198.632z M92.024,312c0,4.418-3.582,8-8,8s-8-3.582-8-8v-16h16V312z M92.024,280h-16v-48h16
			V280z M92.024,216h-32v-80h32V216z M108.024,32c0-8.837,7.163-16,16-16h240c8.837,0,16,7.163,16,16v32h-272V32z M108.024,134.64
			l112-21.04v124.8l-112-21.04V134.64z M108.024,233.6l16,3.04V248h-16V233.6z M380.024,448c0,8.837-7.163,16-16,16h-240
			c-8.837,0-16-7.163-16-16v-32h272V448z M380.024,400h-272V264h24c4.418,0,8-3.582,8-8v-16.36l86.528,16.224
			c0.486,0.089,0.978,0.135,1.472,0.136c4.418,0,8-3.582,8-8V104c0-4.418-3.581-8-7.999-8.001c-0.494,0-0.987,0.046-1.473,0.137
			L108.024,118.4V80h272v136h-80c-4.418,0-8,3.582-8,8v128c0,4.418,3.582,8,8,8h80V400z M452.024,344h-144V232h144V344z"/>
	</g>
</g>
<g>
	<g>
		<path d="M435.471,285.031c-0.813-2.041-2.43-3.658-4.471-4.471l-80-32c-4.101-1.644-8.758,0.349-10.402,4.45
			c-0.381,0.951-0.576,1.966-0.574,2.99v64c0,2.654,1.315,5.135,3.512,6.624c2.201,1.49,4.998,1.79,7.464,0.8l80-32
			C435.105,293.789,437.107,289.136,435.471,285.031z M356.024,308.184v-40.368L406.488,288L356.024,308.184z"/>
	</g>
</g>
<g>
	<g>
		<rect x="140.024" y="312" width="128" height="16"/>
	</g>
</g>
<g>
	<g>
		<rect x="140.024" y="344" width="104" height="16"/>
	</g>
</g>
<g>
	<g>
		<rect x="204.024" y="280" width="64" height="16"/>
	</g>
</g>
<g>
	<g>
		<rect x="260.024" y="152" width="96" height="16"/>
	</g>
</g>
<g>
	<g>
		<rect x="260.024" y="184" width="72" height="16"/>
	</g>
</g>
<g>
	<g>
		<rect x="308.024" y="120" width="48" height="16"/>
	</g>
</g>
<g>
</g>
<g>
</g>
<g>
</g>
<g>
</g>
<g>
</g>
<g>
</g>
<g>
</g>
<g>
</g>
<g>
</g>
<g>
</g>
<g>
</g>
<g>
</g>
<g>
</g>
<g>
</g>
<g>
</g>
</svg>
