<?xml version="1.0" encoding="iso-8859-1"?>
<!-- Generator: Adobe Illustrator 19.0.0, SVG Export Plug-In . SVG Version: 6.00 Build 0)  -->
<svg version="1.1" id="Capa_1" xmlns="http://www.w3.org/2000/svg" xmlns:xlink="http://www.w3.org/1999/xlink" x="0px" y="0px"
	   fill="#82b440" viewBox="0 0 480.065 480.065" style="enable-background:new 0 0 480.065 480.065;" xml:space="preserve">
<g>
	<g>
		<rect x="32" y="95.966" width="16" height="16"/>
	</g>
</g>
<g>
	<g>
		<rect x="64" y="95.966" width="16" height="16"/>
	</g>
</g>
<g>
	<g>
		<rect x="96" y="95.966" width="16" height="16"/>
	</g>
</g>
<g>
	<g>
		<path d="M478.513,107.231c-0.481-0.654-1.058-1.232-1.713-1.713l-33.6-24.704l6.272-41.184c0.664-4.368-2.338-8.448-6.706-9.112
			c-0.797-0.121-1.609-0.121-2.406,0l-41.208,6.248l-24.704-33.6c-2.897-3.561-8.132-4.1-11.693-1.203
			c-0.441,0.359-0.844,0.762-1.203,1.203l-24.704,33.6l-41.184-6.272c-4.368-0.664-8.448,2.338-9.112,6.706
			c-0.121,0.797-0.121,1.609,0,2.406l3.704,24.36H32c-17.673,0-32,14.327-32,32v352c0,17.673,14.327,32,32,32h384
			c17.673,0,32-14.327,32-32V190.142c1.224-1.684,1.744-3.779,1.448-5.84l-6.248-41.184l33.6-24.704
			C480.361,115.799,481.128,110.792,478.513,107.231z M16,95.966c0-8.837,7.163-16,16-16h260.688l0.136,0.848l-33.6,24.704
			c-3.561,2.615-4.328,7.622-1.713,11.183c0.481,0.655,1.058,1.232,1.713,1.713l13.016,9.552H16V95.966z M432,447.966
			c0,8.837-7.163,16-16,16H32c-8.837,0-16-7.163-16-16v-304h276.688l-6.136,40.336c-0.664,4.368,2.338,8.448,6.706,9.112
			c0.797,0.121,1.609,0.121,2.406,0L320,189.71v90.256c-0.002,4.418,3.579,8.001,7.997,8.003c1.819,0.001,3.583-0.618,5.003-1.755
			l35-28.008l35,28c3.449,2.761,8.484,2.204,11.245-1.245c1.135-1.418,1.754-3.179,1.755-4.995V189.71l16,2.4V447.966z M336,263.318
			v-76.04l0.848-0.136l24.704,33.6c2.615,3.561,7.622,4.328,11.183,1.713c0.654-0.481,1.232-1.058,1.713-1.713l24.704-33.6
			l0.848,0.136v76l-27-21.6c-2.923-2.34-7.077-2.34-10,0L336,263.318z M429.8,133.094c-2.407,1.755-3.641,4.702-3.2,7.648
			l5.4,35.224l-35.2-5.36c-2.946-0.441-5.893,0.793-7.648,3.2L368,202.462l-21.128-28.696c-1.497-2.039-3.871-3.249-6.4-3.264
			c-0.405,0-0.809,0.032-1.208,0.096L304,175.966l5.36-35.2c0.441-2.946-0.793-5.893-3.2-7.648l-28.656-21.152L306.2,90.838
			c2.407-1.755,3.641-4.702,3.2-7.648L304,47.966l35.2,5.36c2.946,0.441,5.893-0.793,7.648-3.2L368,21.47l21.128,28.696
			c1.755,2.407,4.702,3.641,7.648,3.2l35.224-5.4l-5.36,35.2c-0.44,2.946,0.793,5.893,3.2,7.648l28.656,21.152L429.8,133.094z"/>
	</g>
</g>
<g>
	<g>
		<rect x="360" y="103.966" width="16" height="16"/>
	</g>
</g>
<g>
	<g>
		<path d="M368,63.966c-26.51,0-48,21.49-48,48s21.49,48,48,48c26.51,0,48-21.49,48-48C415.974,85.467,394.499,63.993,368,63.966z
			 M368,143.966c-17.673,0-32-14.327-32-32s14.327-32,32-32c17.673,0,32,14.327,32,32S385.673,143.966,368,143.966z"/>
	</g>
</g>
<g>
	<g>
		<path d="M272,423.966v-168c0-4.418-3.582-8-8-8h-40c-4.418,0-8,3.582-8,8v168h-24v-128c0-4.418-3.582-8-8-8h-40
			c-4.418,0-8,3.582-8,8v128h-24v-88c0-4.418-3.582-8-8-8H64c-4.418,0-8,3.582-8,8v88H40v16h248v-16H272z M96,423.966H72v-80h24
			V423.966z M176,423.966h-24v-120h24V423.966z M256,423.966h-24v-160h24V423.966z"/>
	</g>
</g>
<g>
	<g>
		<rect x="72" y="167.966" width="16" height="16"/>
	</g>
</g>
<g>
	<g>
		<rect x="104" y="167.966" width="160" height="16"/>
	</g>
</g>
<g>
	<g>
		<rect x="40" y="199.966" width="224" height="16"/>
	</g>
</g>
<g>
	<g>
		<rect x="40" y="231.966" width="152" height="16"/>
	</g>
</g>
<g>
	<g>
		<rect x="312" y="327.966" width="16" height="16"/>
	</g>
</g>
<g>
	<g>
		<rect x="344" y="327.966" width="64" height="16"/>
	</g>
</g>
<g>
	<g>
		<rect x="312" y="359.966" width="96" height="16"/>
	</g>
</g>
<g>
	<g>
		<rect x="312" y="391.966" width="96" height="16"/>
	</g>
</g>
<g>
	<g>
		<rect x="312" y="423.966" width="96" height="16"/>
	</g>
</g>
<g>
</g>
<g>
</g>
<g>
</g>
<g>
</g>
<g>
</g>
<g>
</g>
<g>
</g>
<g>
</g>
<g>
</g>
<g>
</g>
<g>
</g>
<g>
</g>
<g>
</g>
<g>
</g>
<g>
</g>
</svg>
