<?xml version="1.0" encoding="iso-8859-1"?>
<!-- Generator: Adobe Illustrator 19.0.0, SVG Export Plug-In . SVG Version: 6.00 Build 0)  -->
<svg version="1.1" id="Capa_1" xmlns="http://www.w3.org/2000/svg" xmlns:xlink="http://www.w3.org/1999/xlink" x="0px" y="0px"
	  fill="#82b440" viewBox="0 0 480 480" style="enable-background:new 0 0 480 480;" xml:space="preserve">
<g>
	<g>
		<path d="M304,16H176c-4.418,0-8,3.582-8,8v48c0,4.418,3.582,8,8,8h128c4.418,0,8-3.582,8-8V24C312,19.582,308.418,16,304,16z
			 M296,64H184V32h112V64z"/>
	</g>
</g>
<g>
	<g>
		<path d="M472,192h-56v-32c0-4.418-3.582-8-8-8H248v-24h-16v24H72c-4.418,0-8,3.582-8,8v32H8c-4.418,0-8,3.582-8,8v48
			c0,4.418,3.582,8,8,8h128c4.418,0,8-3.582,8-8v-48c0-4.418-3.582-8-8-8H80v-24h152v24h-56c-4.418,0-8,3.582-8,8v48
			c0,4.418,3.582,8,8,8h128c4.418,0,8-3.582,8-8v-48c0-4.418-3.582-8-8-8h-56v-24h152v24h-56c-4.418,0-8,3.582-8,8v48
			c0,4.418,3.582,8,8,8h128c4.418,0,8-3.582,8-8v-48C480,195.582,476.418,192,472,192z M128,208v32H16v-32H128z M296,208v32H184v-32
			H296z M464,240H352v-32h112V240z"/>
	</g>
</g>
<g>
	<g>
		<rect x="176" y="96" width="16" height="16"/>
	</g>
</g>
<g>
	<g>
		<rect x="208" y="96" width="96" height="16"/>
	</g>
</g>
<g>
	<g>
		<rect x="8" y="272" width="16" height="16"/>
	</g>
</g>
<g>
	<g>
		<rect x="40" y="272" width="96" height="16"/>
	</g>
</g>
<g>
	<g>
		<rect x="176" y="272" width="16" height="16"/>
	</g>
</g>
<g>
	<g>
		<rect x="208" y="272" width="96" height="16"/>
	</g>
</g>
<g>
	<g>
		<rect x="344" y="272" width="16" height="16"/>
	</g>
</g>
<g>
	<g>
		<rect x="376" y="272" width="96" height="16"/>
	</g>
</g>
<g>
	<g>
		<path d="M472,368h-56v-32c0-4.418-3.582-8-8-8H248v-24h-16v24H72c-4.418,0-8,3.582-8,8v32H8c-4.418,0-8,3.582-8,8v48
			c0,4.418,3.582,8,8,8h128c4.418,0,8-3.582,8-8v-48c0-4.418-3.582-8-8-8H80v-24h152v24h-56c-4.418,0-8,3.582-8,8v48
			c0,4.418,3.582,8,8,8h128c4.418,0,8-3.582,8-8v-48c0-4.418-3.582-8-8-8h-56v-24h152v24h-56c-4.418,0-8,3.582-8,8v48
			c0,4.418,3.582,8,8,8h128c4.418,0,8-3.582,8-8v-48C480,371.582,476.418,368,472,368z M128,384v32H16v-32H128z M296,384v32H184v-32
			H296z M464,416H352v-32h112V416z"/>
	</g>
</g>
<g>
	<g>
		<rect x="8" y="448" width="16" height="16"/>
	</g>
</g>
<g>
	<g>
		<rect x="40" y="448" width="96" height="16"/>
	</g>
</g>
<g>
	<g>
		<rect x="176" y="448" width="16" height="16"/>
	</g>
</g>
<g>
	<g>
		<rect x="208" y="448" width="96" height="16"/>
	</g>
</g>
<g>
	<g>
		<rect x="344" y="448" width="16" height="16"/>
	</g>
</g>
<g>
	<g>
		<rect x="376" y="448" width="96" height="16"/>
	</g>
</g>
<g>
</g>
<g>
</g>
<g>
</g>
<g>
</g>
<g>
</g>
<g>
</g>
<g>
</g>
<g>
</g>
<g>
</g>
<g>
</g>
<g>
</g>
<g>
</g>
<g>
</g>
<g>
</g>
<g>
</g>
</svg>
