<?xml version="1.0" encoding="iso-8859-1"?>
<!-- Generator: Adobe Illustrator 19.0.0, SVG Export Plug-In . SVG Version: 6.00 Build 0)  -->
<svg version="1.1" id="Capa_1" xmlns="http://www.w3.org/2000/svg" xmlns:xlink="http://www.w3.org/1999/xlink" x="0px" y="0px"
	  fill="#82b440" viewBox="0 0 480 480" style="enable-background:new 0 0 480 480;" xml:space="preserve">
<g>
	<g>
		<rect x="104" y="400" width="16" height="16"/>
	</g>
</g>
<g>
	<g>
		<rect x="72" y="400" width="16" height="16"/>
	</g>
</g>
<g>
	<g>
		<rect x="104" y="368" width="16" height="16"/>
	</g>
</g>
<g>
	<g>
		<rect x="72" y="368" width="16" height="16"/>
	</g>
</g>
<g>
	<g>
		<rect x="136" y="368" width="16" height="16"/>
	</g>
</g>
<g>
	<g>
		<rect x="168" y="368" width="16" height="16"/>
	</g>
</g>
<g>
	<g>
		<rect x="200" y="368" width="16" height="16"/>
	</g>
</g>
<g>
	<g>
		<rect x="232" y="368" width="16" height="16"/>
	</g>
</g>
<g>
	<g>
		<rect x="264" y="368" width="16" height="16"/>
	</g>
</g>
<g>
	<g>
		<rect x="296" y="368" width="16" height="16"/>
	</g>
</g>
<g>
	<g>
		<rect x="328" y="368" width="16" height="16"/>
	</g>
</g>
<g>
	<g>
		<rect x="360" y="368" width="16" height="16"/>
	</g>
</g>
<g>
	<g>
		<rect x="392" y="368" width="16" height="16"/>
	</g>
</g>
<g>
	<g>
		<rect x="104" y="336" width="16" height="16"/>
	</g>
</g>
<g>
	<g>
		<rect x="136" y="336" width="16" height="16"/>
	</g>
</g>
<g>
	<g>
		<rect x="168" y="336" width="16" height="16"/>
	</g>
</g>
<g>
	<g>
		<rect x="200" y="336" width="16" height="16"/>
	</g>
</g>
<g>
	<g>
		<rect x="232" y="336" width="16" height="16"/>
	</g>
</g>
<g>
	<g>
		<rect x="264" y="336" width="16" height="16"/>
	</g>
</g>
<g>
	<g>
		<rect x="296" y="336" width="16" height="16"/>
	</g>
</g>
<g>
	<g>
		<rect x="328" y="336" width="16" height="16"/>
	</g>
</g>
<g>
	<g>
		<rect x="360" y="336" width="16" height="16"/>
	</g>
</g>
<g>
	<g>
		<rect x="136" y="400" width="16" height="16"/>
	</g>
</g>
<g>
	<g>
		<rect x="168" y="400" width="144" height="16"/>
	</g>
</g>
<g>
	<g>
		<rect x="328" y="400" width="16" height="16"/>
	</g>
</g>
<g>
	<g>
		<rect x="392" y="400" width="16" height="16"/>
	</g>
</g>
<g>
	<g>
		<rect x="360" y="400" width="16" height="16"/>
	</g>
</g>
<g>
	<g>
		<rect x="96" y="32" width="16" height="16"/>
	</g>
</g>
<g>
	<g>
		<rect x="128" y="32" width="16" height="16"/>
	</g>
</g>
<g>
	<g>
		<rect x="160" y="32" width="16" height="16"/>
	</g>
</g>
<g>
	<g>
		<path d="M133.656,109.656l-11.312-11.312l-16,16c-3.123,3.124-3.123,8.188,0,11.312l16,16l11.312-11.312L123.312,120
			L133.656,109.656z"/>
	</g>
</g>
<g>
	<g>
		<path d="M197.656,114.344l-16-16l-11.312,11.312L180.688,120l-10.344,10.344l11.312,11.312l16-16
			C200.779,122.532,200.779,117.468,197.656,114.344z"/>
	</g>
</g>
<g>
	<g>
		<rect x="126.699" y="111.998" transform="matrix(0.3164 -0.9486 0.9486 0.3164 -9.9247 226.224)" width="50.6" height="16"/>
	</g>
</g>
<g>
	<g>
		<rect x="216" y="128" width="16" height="16"/>
	</g>
</g>
<g>
	<g>
		<rect x="104" y="160" width="16" height="16"/>
	</g>
</g>
<g>
	<g>
		<rect x="104" y="192" width="16" height="16"/>
	</g>
</g>
<g>
	<g>
		<rect x="104" y="224" width="16" height="16"/>
	</g>
</g>
<g>
	<g>
		<rect x="136" y="160" width="192" height="16"/>
	</g>
</g>
<g>
	<g>
		<rect x="248" y="128" width="16" height="16"/>
	</g>
</g>
<g>
	<g>
		<rect x="280" y="128" width="16" height="16"/>
	</g>
</g>
<g>
	<g>
		<rect x="312" y="128" width="16" height="16"/>
	</g>
</g>
<g>
	<g>
		<rect x="136" y="192" width="32" height="16"/>
	</g>
</g>
<g>
	<g>
		<rect x="136" y="224" width="32" height="16"/>
	</g>
</g>
<g>
	<g>
		<rect x="184" y="224" width="32" height="16"/>
	</g>
</g>
<g>
	<g>
		<rect x="184" y="192" width="32" height="16"/>
	</g>
</g>
<g>
	<g>
		<rect x="232" y="192" width="32" height="16"/>
	</g>
</g>
<g>
	<g>
		<rect x="344" y="160" width="32" height="16"/>
	</g>
</g>
<g>
	<g>
		<rect y="264" width="16" height="16"/>
	</g>
</g>
<g>
	<g>
		<path d="M464,208v112c0,8.837-7.163,16-16,16h-9.752l-6.488-25.944c-0.892-3.559-4.091-6.056-7.76-6.056H56
			c-3.669,0-6.868,2.497-7.76,6.056L41.752,336H32c-8.837,0-16-7.163-16-16v-24H0v24c0,17.673,14.327,32,32,32h5.752L16.24,438.056
			l0.144,0.04c-0.209,0.616-0.338,1.255-0.384,1.904v32c0,4.418,3.582,8,8,8h432c4.418,0,8-3.582,8-8v-32
			c-0.046-0.648-0.175-1.288-0.384-1.904l0.144-0.04L442.248,352H448c17.673,0,32-14.327,32-32V208H464z M448,464H32v-16h416V464z
			 M445.752,432H34.248l28-112h355.504L445.752,432z"/>
	</g>
</g>
<g>
	<g>
		<rect x="464" y="176" width="16" height="16"/>
	</g>
</g>
<g>
	<g>
		<path d="M448,96h-32V32c0-17.673-14.327-32-32-32H96C78.327,0,64,14.327,64,32v64H32c-17.673,0-32,14.327-32,32v120h16V128
			c0-8.837,7.163-16,16-16h32v136c0,17.673,14.327,32,32,32h288c17.673,0,32-14.327,32-32V112h32c8.837,0,16,7.163,16,16v32h16v-32
			C480,110.327,465.673,96,448,96z M400,248c0,8.837-7.163,16-16,16H96c-8.837,0-16-7.163-16-16V80h320V248z M400,64H80V32
			c0-8.837,7.163-16,16-16h288c8.837,0,16,7.163,16,16V64z"/>
	</g>
</g>
<g>
</g>
<g>
</g>
<g>
</g>
<g>
</g>
<g>
</g>
<g>
</g>
<g>
</g>
<g>
</g>
<g>
</g>
<g>
</g>
<g>
</g>
<g>
</g>
<g>
</g>
<g>
</g>
<g>
</g>
</svg>
