<?xml version="1.0" encoding="iso-8859-1"?>
<!-- Generator: Adobe Illustrator 19.0.0, SVG Export Plug-In . SVG Version: 6.00 Build 0)  -->
<svg version="1.1" id="Capa_1" xmlns="http://www.w3.org/2000/svg" xmlns:xlink="http://www.w3.org/1999/xlink" x="0px" y="0px"
	  fill="#82b440" viewBox="0 0 480.027 480.027" style="enable-background:new 0 0 480.027 480.027;" xml:space="preserve">
<g>
	<g>
		<path d="M456.014,290.488V72c-0.055-14.547-9.914-27.227-24-30.864V32c0-17.673-14.327-32-32-32h-368c-17.673,0-32,14.327-32,32
			v344c0,17.673,14.327,32,32,32h8c0,17.673,14.327,32,32,32h271.6c17.631,35.602,60.786,50.171,96.389,32.539
			c24.53-12.148,40.04-37.166,40.011-64.539v-64C480,323.559,471.269,304.093,456.014,290.488z M424.014,56c8.837,0,16,7.163,16,16
			v32h-384V72c0-8.837,7.163-16,16-16H424.014z M40.014,72v320h-8c-8.837,0-16-7.163-16-16V32c0-8.837,7.163-16,16-16h368
			c8.837,0,16,7.163,16,16v8h-344C54.341,40,40.014,54.327,40.014,72z M337.87,424H72.014c-8.837,0-16-7.163-16-16V120h384v159.6
			c-9.929-4.99-20.887-7.593-32-7.6c-39.746,0.044-71.956,32.254-72,72v64C336.03,413.386,336.653,418.753,337.87,424z M464.014,408
			c0,30.928-25.072,56-56,56c-30.928,0-56-25.072-56-56v-13.056c7.046,3.563,12.061,10.168,13.6,17.912
			c2.031,10.123,7.729,19.14,16,25.32l1.264,0.952c14.939,11.113,35.397,11.113,50.336,0l1.264-0.944
			c8.249-6.193,13.923-15.211,15.936-25.328c1.539-7.744,6.554-14.349,13.6-17.912V408z M464.014,377.848
			c-14.957,4.305-26.26,16.599-29.296,31.864c-1.259,6.265-4.786,11.846-9.904,15.672l-1.256,0.944
			c-9.239,6.868-21.889,6.868-31.128,0l-1.264-0.952c-5.108-3.829-8.625-9.405-9.88-15.664
			c-3.031-15.259-14.324-27.552-29.272-31.864V344c0-30.928,25.072-56,56-56c30.928,0,56,25.072,56,56V377.848z"/>
	</g>
</g>
<g>
	<g>
		<path d="M408.014,312c-13.255,0-24,10.745-24,24v24c0,13.255,10.745,24,24,24s24-10.745,24-24v-24
			C432.014,322.745,421.268,312,408.014,312z M416.014,360c0,4.418-3.582,8-8,8s-8-3.582-8-8v-24c0-4.418,3.582-8,8-8s8,3.582,8,8
			V360z"/>
	</g>
</g>
<g>
	<g>
		<path d="M248.014,144h-160c-4.418,0-8,3.582-8,8v128c0,4.418,3.582,8,8,8h160c4.418,0,8-3.582,8-8V152
			C256.014,147.582,252.432,144,248.014,144z M240.014,272h-144V160h144V272z"/>
	</g>
</g>
<g>
	<g>
		<path d="M223.453,213.039c-0.813-2.041-2.43-3.658-4.471-4.471l-80-32c-4.103-1.639-8.758,0.358-10.397,4.461
			c-0.378,0.945-0.571,1.953-0.571,2.971v64c0,4.418,3.582,8,8,8c1.017,0.003,2.024-0.19,2.968-0.568l80-32
			C223.086,221.797,225.088,217.144,223.453,213.039z M144.014,236.184v-40.368L194.478,216L144.014,236.184z"/>
	</g>
</g>
<g>
	<g>
		<rect x="280.014" y="176" width="136" height="16"/>
	</g>
</g>
<g>
	<g>
		<rect x="280.014" y="208" width="136" height="16"/>
	</g>
</g>
<g>
	<g>
		<rect x="280.014" y="240" width="96" height="16"/>
	</g>
</g>
<g>
	<g>
		<rect x="336.014" y="144" width="80" height="16"/>
	</g>
</g>
<g>
	<g>
		<rect x="304.014" y="144" width="16" height="16"/>
	</g>
</g>
<g>
	<g>
		<rect x="80.014" y="352" width="232" height="16"/>
	</g>
</g>
<g>
	<g>
		<rect x="80.014" y="384" width="232" height="16"/>
	</g>
</g>
<g>
	<g>
		<rect x="136.014" y="320" width="176" height="16"/>
	</g>
</g>
<g>
	<g>
		<rect x="104.014" y="320" width="16" height="16"/>
	</g>
</g>
<g>
	<g>
		<rect x="72.014" y="72" width="16" height="16"/>
	</g>
</g>
<g>
	<g>
		<rect x="104.014" y="72" width="16" height="16"/>
	</g>
</g>
<g>
	<g>
		<rect x="136.014" y="72" width="16" height="16"/>
	</g>
</g>
<g>
</g>
<g>
</g>
<g>
</g>
<g>
</g>
<g>
</g>
<g>
</g>
<g>
</g>
<g>
</g>
<g>
</g>
<g>
</g>
<g>
</g>
<g>
</g>
<g>
</g>
<g>
</g>
<g>
</g>
</svg>
