<svg width="40" height="40" viewBox="0 0 40 40" fill="none" xmlns="http://www.w3.org/2000/svg">
<path d="M19.7737 38.8992L19.7737 38.8992C19.5118 38.6075 16.1683 34.8557 12.8962 29.9582C11.2601 27.5094 9.65531 24.794 8.46249 22.0965C7.26419 19.3867 6.51367 16.7656 6.51367 14.4864C6.51367 7.05088 12.5645 1 20.0002 1C27.4357 1 33.4865 7.05087 33.4866 14.4864C33.4866 16.7656 32.7361 19.3867 31.5378 22.0965C30.345 24.794 28.7402 27.5094 27.1042 29.9582C23.8321 34.8557 20.4885 38.6075 20.2266 38.8992L20.2266 38.8992C20.106 39.0335 19.8943 39.0335 19.7737 38.8992Z" fill="white" stroke="#82B440" stroke-width="2"/>
<path d="M29.0967 17.3485L28.6875 17.4737L20.5333 12.7643C20.1471 12.5421 19.475 12.5703 19.0253 12.8278L10.9381 17.4967L10.9187 17.509L10.5659 17.4014V17.9306C10.5659 17.95 10.5659 17.9694 10.5659 17.9905V18.0329C10.5805 18.1033 10.611 18.1694 10.655 18.2263C10.699 18.2831 10.7554 18.3292 10.8199 18.3609L19.124 23.155C19.5103 23.3773 20.1823 23.3508 20.6339 23.0915L28.744 18.4297C28.8382 18.3876 28.9208 18.3232 28.9847 18.2421C29.0486 18.161 29.0919 18.0656 29.1108 17.9641L29.0967 17.3485Z" fill="#D6D6D6"/>
<path d="M19.1402 22.5994L10.836 17.8124C10.4498 17.5901 10.4991 17.2003 10.9454 16.9428L19.0326 12.2739C19.4788 12.0147 20.1544 11.9864 20.5406 12.2104L28.8448 17.0045C29.231 17.2285 29.1834 17.6183 28.7354 17.8759L20.65 22.5447C20.202 22.7952 19.5264 22.8234 19.1402 22.5994Z" fill="#EAEAEA"/>
<path d="M29.0967 14.7028L28.6875 14.828L20.5333 10.1186C20.1471 9.89631 19.475 9.92453 19.0253 10.182L10.9381 14.8509L10.9187 14.8633L10.5659 14.7557V15.2848C10.5659 15.3042 10.5659 15.3236 10.5659 15.3448V15.3871C10.5805 15.4575 10.611 15.5237 10.655 15.5805C10.699 15.6374 10.7554 15.6834 10.8199 15.7152L19.124 20.5093C19.5103 20.7315 20.1823 20.7051 20.6339 20.4458L28.744 15.784C28.8382 15.7418 28.9208 15.6774 28.9847 15.5963C29.0486 15.5152 29.0919 15.4198 29.1108 15.3183L29.0967 14.7028Z" fill="#6F9A37"/>
<path d="M19.1402 19.9537L10.836 15.1666C10.4498 14.9444 10.4991 14.5546 10.9454 14.2971L19.0326 9.62819C19.4788 9.3689 20.1544 9.34068 20.5406 9.56469L28.8448 14.3588C29.231 14.5828 29.1834 14.9726 28.7354 15.2301L20.65 19.899C20.202 20.1494 19.5264 20.1777 19.1402 19.9537Z" fill="#82B440"/>
<path d="M29.0967 11.7042L28.6875 11.8294L20.5333 7.12002C20.1471 6.89778 19.475 6.926 19.0253 7.18351L10.9381 11.8524L10.9187 11.8647L10.5659 11.7571V12.2863C10.5659 12.3057 10.5659 12.3251 10.5659 12.3463V12.3886C10.5805 12.459 10.611 12.5251 10.655 12.582C10.699 12.6388 10.7554 12.6849 10.8199 12.7167L19.124 17.5108C19.5103 17.733 20.1823 17.7065 20.6339 17.4473L28.744 12.7854C28.8382 12.7433 28.9208 12.6789 28.9847 12.5978C29.0486 12.5167 29.0919 12.4213 29.1108 12.3198L29.0967 11.7042Z" fill="#D6D6D6"/>
<path d="M19.1402 16.9551L10.836 12.1681C10.4498 11.9458 10.4991 11.556 10.9454 11.2985L19.0326 6.62965C19.4788 6.37037 20.1544 6.34215 20.5406 6.56615L28.8448 11.3603C29.231 11.5843 29.1834 11.9741 28.7354 12.2316L20.65 16.9004C20.202 17.1509 19.5264 17.1791 19.1402 16.9551Z" fill="#EAEAEA"/>
</svg>
